<?xml version="1.0" encoding="UTF-8" standalone="no"?>
<svg
   version="1.0"
   width="1024.000000pt"
   height="1024.000000pt"
   viewBox="0 0 1024.000000 1024.000000"
   preserveAspectRatio="xMidYMid meet"
   id="svg86"
   sodipodi:docname="DALL·E-2025-02-25-22.41.svg"
   inkscape:version="1.4 (e7c3feb1, 2024-10-09)"
   xmlns:inkscape="http://www.inkscape.org/namespaces/inkscape"
   xmlns:sodipodi="http://sodipodi.sourceforge.net/DTD/sodipodi-0.dtd"
   xmlns="http://www.w3.org/2000/svg"
   xmlns:svg="http://www.w3.org/2000/svg">
  <defs
     id="defs86" />
  <sodipodi:namedview
     id="namedview86"
     pagecolor="#ffffff"
     bordercolor="#000000"
     borderopacity="0.25"
     inkscape:showpageshadow="2"
     inkscape:pageopacity="0.0"
     inkscape:pagecheckerboard="0"
     inkscape:deskcolor="#d1d1d1"
     inkscape:document-units="pt"
     inkscape:zoom="0.37214833"
     inkscape:cx="717.45586"
     inkscape:cy="505.17491"
     inkscape:window-width="1512"
     inkscape:window-height="945"
     inkscape:window-x="0"
     inkscape:window-y="37"
     inkscape:window-maximized="0"
     inkscape:current-layer="g86" />
  <g
     transform="translate(0.000000,1024.000000) scale(0.100000,-0.100000)"
     fill="#000000"
     stroke="none"
     id="g86">
    <path
       d="M4375 10057 c-44 -20 -102 -89 -117 -139 -17 -59 -14 -190 6 -267 21 -80 67 -173 115 -229 20 -24 40 -49 45 -56 8 -12 -65 -115 -193 -269 -187 -226 -232 -289 -217 -305 4 -4 32 -6 62 -5 30 2 54 0 54 -3 0 -3 -11 -25 -25 -48 -62 -106 -102 -289 -90 -411 3 -33 13 -111 22 -173 16 -107 18 -112 31 -87 7 15 16 25 18 22 3 -3 13 -45 23 -93 11 -49 33 -124 50 -167 17 -43 31 -84 31 -91 0 -7 -30 -33 -67 -58 -38 -24 -184 -122 -326 -218 -336 -228 -304 -211 -404 -222 -186 -20 -376 -87 -523 -183 -96 -63 -263 -229 -327 -325 -114 -170 -154 -293 -155 -475 -1 -66 2 -138 6 -161 l7 -41 -141 -129 c-184 -167 -282 -297 -363 -480 -54 -123 -60 -169 -53 -391 9 -240 10 -235 -103 -357 -42 -45 -90 -109 -108 -142 -18 -33 -63 -89 -104 -129 -92 -90 -164 -198 -180 -271 -16 -71 -1 -154 44 -237 29 -56 128 -166 208 -232 30 -24 41 -45 59 -105 48 -162 155 -321 276 -411 70 -51 284 -157 429 -211 164 -62 332 -144 441 -216 l92 -60 4 -104 c3 -90 7 -110 32 -154 36 -67 92 -120 136 -131 l35 -9 11 -130 c17 -198 47 -250 169 -286 80 -23 254 -113 262 -135 3 -8 -3 -33 -13 -56 -29 -64 -24 -123 18 -198 22 -41 47 -71 69 -84 34 -20 53 -20 1899 -23 1026 -1 1898 0 1937 4 51 4 82 12 105 28 42 28 87 111 95 175 5 42 2 57 -21 95 -14 24 -26 47 -26 50 0 12 183 107 255 132 100 34 128 54 162 111 24 41 27 59 33 182 8 147 27 220 94 365 84 182 267 316 601 441 156 58 234 92 320 142 232 135 366 298 414 503 18 77 23 87 63 119 71 57 142 133 171 183 60 103 70 233 25 323 -25 50 -109 162 -175 235 -27 30 -68 82 -90 115 -23 33 -64 86 -92 118 -128 146 -141 183 -140 396 2 189 -11 253 -81 395 -71 147 -175 274 -350 428 l-145 128 0 177 0 178 -41 110 c-59 162 -134 278 -265 407 -197 194 -400 296 -657 332 -60 9 -121 20 -134 25 -14 5 -137 83 -274 174 -137 90 -293 190 -346 221 l-96 58 18 51 c10 29 29 81 43 117 14 36 28 89 32 118 7 53 13 60 31 42 21 -21 35 19 45 136 22 243 -13 464 -90 573 l-20 28 57 -1 c51 -1 57 1 56 19 -1 27 -127 203 -212 297 -38 42 -90 107 -114 144 -25 38 -55 77 -66 88 l-22 19 54 58 c90 97 136 225 136 377 0 101 -25 173 -77 224 -87 84 -161 73 -358 -54 -142 -92 -310 -163 -360 -153 -16 3 -65 19 -108 36 -116 44 -165 51 -283 38 -73 -7 -118 -7 -161 0 -78 15 -161 3 -320 -45 l-123 -36 -57 22 c-96 38 -248 116 -323 165 -39 26 -86 53 -104 60 -52 22 -127 27 -161 12z m2294 -142 c17 -20 33 -45 35 -58 21 -103 9 -195 -37 -280 -31 -59 -85 -123 -94 -113 -3 3 4 25 16 49 11 24 21 50 21 58 0 8 -8 -1 -17 -19 -28 -57 -25 -28 7 57 31 85 41 137 13 66 -21 -51 -58 -102 -86 -116 -16 -8 -12 0 14 27 20 22 39 48 43 59 4 13 -4 8 -24 -15 -30 -35 -30 -35 10 53 22 49 40 93 40 97 0 5 -26 -2 -57 -16 l-58 -25 63 62 c66 65 74 79 42 79 -23 0 -28 38 -8 58 21 21 45 13 77 -23z m-2201 -2 c22 -18 36 -42 42 -68 12 -51 7 -54 -18 -11 -11 19 -30 40 -43 46 l-22 12 23 -38 c13 -22 39 -56 57 -77 31 -35 41 -57 27 -57 -4 0 -28 15 -54 34 l-48 34 23 -59 c13 -32 22 -59 19 -59 -14 0 41 -83 73 -109 43 -36 38 -39 -15 -12 -37 19 -69 49 -91 86 -24 40 -2 -64 25 -117 14 -27 23 -52 21 -54 -9 -10 -72 73 -99 132 -56 121 -56 261 0 327 21 24 43 21 80 -10z m227 -80 c39 -20 93 -47 120 -61 90 -45 156 -84 152 -89 -3 -2 -36 5 -73 16 -38 11 -82 22 -97 24 -16 2 -33 10 -38 18 -5 8 -9 10 -9 5 0 -5 -17 9 -38 30 -21 22 -54 51 -73 66 -48 38 -26 34 56 -9z m1716 18 c-33 -60 -191 -151 -292 -167 -39 -6 -43 -6 -31 8 7 9 38 26 70 39 68 27 239 117 248 130 10 17 15 9 5 -10z m-947 -90 c16 -6 27 -13 25 -15 -2 -2 -38 -6 -79 -9 -90 -7 -220 -46 -311 -93 -66 -35 -185 -134 -250 -208 -18 -21 -96 -93 -173 -159 -144 -125 -222 -213 -244 -275 -8 -23 -12 -75 -11 -132 1 -58 -6 -146 -19 -225 -24 -150 -37 -322 -28 -359 4 -16 11 -23 20 -20 16 6 45 -76 47 -130 0 -17 7 -62 14 -101 l14 -70 -2 73 c-1 39 -1 72 0 72 8 0 76 -107 87 -138 15 -42 116 -211 143 -237 35 -35 24 -1 -21 64 -42 63 -47 74 -44 118 l3 48 16 -35 c26 -56 141 -191 238 -279 60 -56 95 -96 106 -123 9 -22 14 -42 12 -44 -2 -2 -23 5 -46 17 -23 11 -77 36 -119 55 -89 41 -136 74 -164 118 l-20 31 6 -35 c3 -19 1 -83 -4 -142 -6 -64 -7 -123 -2 -146 l9 -39 -68 71 c-112 116 -159 235 -159 404 0 70 -3 93 -12 90 -9 -3 -17 -43 -23 -114 l-10 -109 -23 75 c-12 41 -28 105 -34 142 -14 87 -32 81 -44 -15 l-9 -72 -18 32 c-52 96 -74 335 -42 457 9 33 14 61 12 63 -5 5 -49 -61 -76 -112 l-20 -40 -1 41 c0 47 38 204 70 284 11 29 19 55 16 57 -7 8 -70 -74 -82 -108 l-12 -34 -1 34 c-1 48 27 157 54 211 13 25 49 83 79 129 74 111 74 113 -8 85 -26 -9 -49 -14 -52 -11 -8 8 92 120 143 159 26 21 102 78 168 127 121 89 273 221 257 221 -5 0 -20 -8 -33 -19 -13 -10 -34 -22 -47 -26 -13 -3 -53 -27 -89 -52 -36 -24 -76 -49 -90 -54 l-25 -9 20 25 c42 53 197 166 231 169 44 4 248 156 236 176 -3 4 1 13 9 19 8 7 12 21 9 31 -4 15 0 20 14 20 11 0 53 11 94 25 189 65 286 77 363 46z m439 -30 c105 -35 129 -48 163 -82 l39 -40 -55 25 c-30 14 -60 26 -65 26 -6 0 -46 11 -90 26 -101 32 -160 44 -260 53 l-80 7 35 17 c57 28 165 17 313 -32z m397 4 c0 -2 -10 -9 -22 -15 -22 -11 -22 -10 -4 4 21 17 26 19 26 11z m-577 -32 c-7 -2 -21 -2 -30 0 -10 3 -4 5 12 5 17 0 24 -2 18 -5z m347 -103 c21 -11 42 -25 45 -30 8 -13 -56 12 -87 35 -32 22 -4 19 42 -5z m85 -90 c17 -11 26 -20 22 -20 -16 0 -63 29 -82 51 l-20 23 25 -17 c14 -10 39 -26 55 -37z m-1100 -6 c-22 -15 -66 -52 -97 -82 -32 -31 -68 -57 -80 -58 -13 -2 -17 0 -10 2 6 3 9 10 6 15 -9 16 68 86 131 119 70 37 104 40 50 4z m1012 -15 c25 -15 31 -25 24 -32 -12 -12 -61 18 -69 41 -5 17 6 15 45 -9z m-1030 -156 c-2 -16 2 -32 10 -38 11 -9 6 -19 -26 -55 -22 -25 -45 -58 -50 -73 l-10 -28 37 29 c56 45 112 71 167 79 l50 6 -35 -28 c-83 -68 -109 -98 -115 -137 -6 -34 -3 -43 26 -76 46 -53 82 -76 42 -27 -38 45 -43 87 -17 138 39 76 109 124 203 137 86 12 94 -1 28 -43 -90 -58 -143 -165 -118 -238 6 -18 11 -42 11 -54 0 -13 15 -52 33 -87 l32 -65 -30 21 c-16 12 -58 47 -92 78 -77 70 -116 79 -213 49 -86 -27 -122 -27 -157 3 -22 19 -27 31 -26 64 2 46 15 73 81 176 47 74 149 196 164 196 5 0 7 -12 5 -27z m1083 -101 c27 -40 54 -89 61 -109 11 -34 10 -38 -14 -59 -15 -12 -52 -28 -84 -34 -32 -7 -64 -17 -70 -22 -10 -8 -13 2 -13 43 0 72 -24 117 -84 157 -44 29 -46 32 -22 32 37 0 90 -24 133 -59 21 -17 39 -29 41 -26 3 2 -5 20 -16 38 -11 19 -23 49 -27 66 -5 25 -3 31 10 31 11 0 15 5 11 15 -26 66 -3 43 74 -73z m-1420 35 c0 -2 -19 -18 -42 -36 l-43 -32 39 35 c37 34 46 40 46 33z m1123 -31 c30 -14 61 -26 67 -26 32 0 103 -181 88 -222 -4 -10 16 -12 96 -10 55 2 106 8 113 13 6 6 17 33 24 62 l12 52 18 -40 c28 -61 24 -101 -12 -137 -27 -28 -34 -30 -77 -25 -26 3 -68 13 -92 21 -25 9 -58 16 -73 16 -28 0 -100 -42 -127 -75 -7 -9 -22 -21 -32 -26 -17 -9 -18 -7 -12 18 7 26 6 27 -12 13 -18 -14 -18 -13 1 8 14 17 20 42 23 93 7 112 -13 150 -130 249 -21 18 -35 37 -32 42 10 16 94 2 157 -26z m877 -189 c97 -85 166 -155 159 -161 -2 -2 -39 13 -81 34 l-77 37 21 -41 c11 -23 31 -54 44 -69 63 -75 147 -259 159 -348 l7 -44 -29 50 c-65 112 -73 122 -73 97 0 -13 18 -94 40 -180 52 -198 50 -230 -5 -135 -47 80 -53 70 -36 -60 18 -132 14 -195 -19 -302 -16 -54 -30 -105 -31 -114 0 -9 -10 13 -21 49 -11 35 -26 73 -33 83 -11 16 -14 11 -19 -45 -10 -95 -28 -198 -36 -198 -23 0 -30 32 -31 135 -1 139 -17 103 -18 -42 -1 -123 -19 -180 -92 -286 -55 -81 -144 -182 -134 -152 15 49 17 116 5 221 l-13 114 -49 -46 c-45 -42 -125 -85 -250 -135 -27 -10 -48 -15 -48 -11 0 21 46 76 119 141 78 71 158 163 214 246 25 36 27 38 27 15 0 -14 -18 -57 -41 -95 -22 -39 -50 -86 -61 -105 l-20 -35 37 40 c41 44 173 241 219 326 l30 54 10 -70 11 -69 17 64 c9 36 20 101 24 145 9 105 16 118 42 76 l20 -32 6 33 c6 34 -6 225 -24 373 -6 44 -10 82 -9 85 0 3 10 -22 23 -55 12 -33 35 -82 50 -110 31 -57 30 -42 -3 78 -14 50 -19 91 -15 115 4 29 -5 69 -41 177 -26 77 -58 160 -71 184 -46 83 -28 77 96 -32z m-1155 3 c3 -5 -7 -8 -24 -7 -16 1 -27 5 -24 10 6 10 41 9 48 -3z m74 -170 c1 -127 1 -134 11 -165 17 -52 82 -417 87 -487 5 -68 5 -68 -21 -68 -25 0 -35 18 -19 34 10 9 10 105 1 99 -5 -2 -8 6 -9 19 0 13 -6 70 -13 128 -18 149 -32 89 -20 -84 12 -176 11 -183 -34 -189 -21 -2 -49 2 -63 9 -14 7 -39 15 -55 18 -16 2 -31 5 -34 6 -3 1 -12 2 -21 1 -23 -2 -32 52 -26 163 2 50 2 79 0 64 -2 -16 -8 -28 -14 -28 -5 0 -9 -12 -10 -27 -1 -33 -17 -76 -19 -53 -3 25 -18 -32 -19 -72 -1 -20 4 -40 9 -43 6 -4 8 -11 5 -16 -4 -5 2 -9 12 -9 10 -1 47 -16 82 -35 35 -18 71 -31 80 -28 13 4 13 3 2 -5 -16 -11 -67 1 -123 29 -48 25 -93 24 -120 -1 -28 -26 -36 -25 -44 5 -8 33 -2 78 31 210 52 211 67 264 81 282 13 16 14 14 10 -22 -5 -33 -3 -31 8 13 8 29 21 63 30 77 17 26 22 75 7 75 -12 0 -2 70 12 87 5 7 7 19 4 28 -4 8 -2 17 3 20 6 4 10 0 11 -7 0 -10 2 -10 6 0 2 6 11 12 19 12 8 0 14 5 14 10 0 6 18 10 40 10 22 0 40 -4 40 -10 0 -18 25 -11 38 11 7 12 15 19 17 17 2 -2 4 -37 4 -78z m-208 37 c-10 -9 -11 -8 -5 6 3 10 9 15 12 12 3 -3 0 -11 -7 -18z m-21 -84 c-11 -17 -11 -17 -6 0 3 10 7 28 7 40 2 22 2 22 6 0 2 -12 -1 -30 -7 -40z m605 7 c0 -22 -29 -18 -33 3 -3 14 1 18 15 15 10 -2 18 -10 18 -18z m-930 0 c3 -5 -3 -10 -14 -10 -12 0 -21 5 -21 10 0 6 6 10 14 10 8 0 18 -4 21 -10z m-55 -17 c0 -19 38 -63 54 -63 5 0 20 9 32 21 12 11 29 19 38 17 15 -3 15 -5 1 -26 -26 -36 -67 -53 -95 -39 -35 18 -63 61 -55 86 8 25 25 28 25 4z m-87 -45 c72 -77 92 -88 164 -88 59 0 63 -2 78 -30 22 -42 19 -111 -9 -193 -13 -40 -29 -91 -36 -115 -8 -23 -16 -38 -19 -33 -4 5 -7 -8 -7 -30 -1 -21 1 -39 5 -39 3 0 28 27 54 60 49 60 64 73 54 46 -3 -8 -1 -16 4 -18 6 -2 1 -15 -10 -30 -12 -14 -21 -38 -21 -53 0 -15 -4 -24 -10 -20 -5 3 -10 4 -10 1 0 -3 4 -8 10 -11 5 -3 16 9 24 27 15 33 15 33 8 3 -4 -16 -7 -57 -7 -90 0 -51 5 -67 32 -106 21 -30 53 -58 89 -79 80 -45 164 -126 164 -158 0 -41 -45 -88 -116 -123 -57 -29 -77 -33 -143 -33 -56 -1 -91 5 -132 22 -53 21 -149 93 -149 112 0 4 62 6 138 5 l137 -4 -90 19 c-49 11 -123 22 -163 26 -64 6 -73 9 -78 30 -9 36 1 41 63 33 147 -18 168 -4 37 26 -103 24 -104 24 -104 51 0 30 2 30 123 0 53 -13 97 -21 97 -19 0 6 -101 50 -159 69 -28 9 -51 21 -51 26 0 14 67 116 110 168 21 25 50 70 65 100 15 30 37 69 50 85 31 42 44 91 40 150 -2 28 -4 58 -4 68 -1 15 -6 17 -31 12 -45 -10 -136 13 -171 42 -29 25 -109 126 -109 138 0 3 8 5 17 5 9 0 39 -24 66 -52z m1137 27 c0 -57 -86 -97 -131 -62 -15 11 -39 49 -39 61 0 14 21 4 45 -20 32 -32 54 -28 80 13 24 39 45 42 45 8z m108 -40 c-16 -30 -41 -64 -55 -75 -41 -32 -128 -53 -185 -46 l-50 7 7 -49 c4 -29 3 -52 -3 -56 -16 -10 -23 53 -11 100 l11 44 64 0 c34 0 75 5 91 11 37 14 79 54 93 90 10 22 19 29 40 29 l28 0 -30 -55z m-778 -45 c-17 -32 -22 -19 -7 19 7 20 13 27 15 18 2 -9 -2 -26 -8 -37z m-783 -167 c2 -244 27 -334 119 -436 40 -44 47 -59 48 -95 1 -23 -2 -42 -5 -42 -4 0 -34 18 -68 41 -76 50 -143 142 -179 242 -21 59 -26 91 -26 172 0 124 34 261 68 275 11 5 26 7 31 6 6 -2 11 -66 12 -163z m284 140 c13 -16 12 -17 -3 -4 -10 7 -18 15 -18 17 0 8 8 3 21 -13z m1029 -57 c0 -3 -4 -8 -10 -11 -5 -3 -10 -1 -10 4 0 6 5 11 10 11 6 0 10 -2 10 -4z m585 -46 c7 0 16 -6 18 -12 3 -8 6 -4 7 7 4 39 19 -61 19 -130 2 -142 -49 -267 -148 -366 -36 -36 -76 -71 -88 -78 -22 -11 -23 -10 -23 25 0 30 8 46 44 84 87 93 124 198 133 378 4 81 9 118 15 108 5 -9 15 -16 23 -16z m-1786 -55 c7 -27 14 -59 17 -70 6 -19 5 -19 -17 2 -17 16 -23 37 -27 80 -5 69 9 63 27 -12z m1651 18 c0 -16 -9 -46 -20 -68 -18 -36 -20 -37 -15 -10 3 17 8 47 12 68 7 43 23 50 23 10z m-1612 -222 c63 -33 122 -80 122 -99 0 -19 -50 -102 -61 -102 -3 0 -27 22 -51 48 -35 37 -48 61 -57 101 -10 48 -8 71 5 71 3 0 21 -9 42 -19z m1582 -16 c0 -51 -75 -155 -112 -155 -18 0 -48 46 -48 74 0 18 115 96 141 96 11 0 19 -7 19 -15z m-890 -135 c0 -5 -2 -10 -4 -10 -3 0 -8 5 -11 10 -3 6 -1 10 4 10 6 0 11 -4 11 -10z m445 -80 c12 -5 33 -6 46 -3 23 6 24 -1 3 -51 -6 -17 -4 -17 24 4 22 16 47 23 89 25 32 2 64 4 72 6 8 2 16 -4 19 -13 2 -13 -7 -20 -40 -28 -57 -15 -150 -51 -144 -57 2 -3 36 0 75 6 100 16 121 14 121 -7 0 -13 -19 -22 -87 -40 -101 -26 -147 -54 -66 -41 26 4 65 8 86 8 36 1 38 -1 35 -26 -3 -27 -6 -28 -71 -35 -38 -3 -75 -9 -83 -12 -31 -12 0 -26 57 -26 32 0 59 -4 59 -9 0 -39 -117 -112 -211 -132 -74 -16 -164 3 -238 51 -104 67 -103 128 1 211 29 23 76 52 105 65 55 25 95 71 110 129 7 27 8 28 11 7 2 -13 14 -27 27 -32z m-265 36 c0 -5 -88 -46 -97 -46 -9 1 78 49 90 50 4 0 7 -2 7 -4z m-249 -52 l34 -15 -34 5 c-18 4 -47 6 -63 6 -17 0 -27 4 -23 10 9 15 48 12 86 -6z m222 -443 c183 -69 210 -80 193 -80 -11 -1 -69 9 -130 20 -70 14 -131 20 -166 16 -92 -8 -289 -50 -283 -60 3 -5 40 -7 87 -3 211 16 299 17 392 8 99 -10 186 -2 208 19 23 22 29 5 23 -70 -4 -65 -11 -91 -39 -142 -29 -56 -135 -185 -144 -176 -3 3 18 64 41 121 9 20 -42 -25 -166 -146 -60 -59 -79 -73 -79 -58 0 23 -15 27 -24 5 -3 -8 -11 -15 -17 -15 -6 0 -52 41 -101 90 -49 50 -94 90 -100 90 -10 0 -7 -33 7 -75 4 -11 -29 16 -72 60 -93 93 -122 155 -131 274 l-5 74 32 -19 c30 -18 33 -18 100 -1 38 10 104 33 147 52 92 41 149 44 227 16z m-1332 -77 c-39 -81 -61 -162 -61 -224 0 -28 -7 -54 -18 -68 l-19 -24 -21 52 c-14 34 -22 74 -22 113 l0 60 -25 -23 c-14 -13 -33 -49 -42 -79 -10 -31 -27 -72 -39 -92 -24 -39 -65 -53 -197 -65 -68 -6 -69 -5 -62 16 l7 22 -28 -20 c-16 -11 -49 -23 -74 -26 l-45 -6 44 41 c65 59 177 141 246 179 33 19 101 61 150 94 124 83 218 134 229 125 5 -5 -5 -37 -23 -75z m2709 -42 c229 -144 358 -230 366 -243 5 -9 2 -10 -12 -5 -10 4 -27 9 -36 11 -9 2 -26 8 -37 14 -11 6 -39 11 -63 11 -39 0 -43 -2 -44 -25 -1 -14 2 -25 6 -25 4 0 11 -7 14 -16 6 -15 -2 -16 -70 -10 -42 3 -83 11 -90 17 -9 7 -14 32 -14 65 0 74 -41 174 -72 174 -4 0 -8 -31 -8 -70 0 -71 -14 -120 -35 -120 -22 0 -35 25 -35 66 0 23 -7 58 -15 77 -8 20 -15 49 -15 64 -1 25 -11 60 -35 117 -8 17 -7 17 26 1 19 -10 95 -56 169 -103z m-1133 32 c-3 -3 -12 -4 -19 -1 -8 3 -5 6 6 6 11 1 17 -2 13 -5z m417 -146 c-26 -52 -170 -259 -210 -303 -22 -24 -31 -30 -22 -15 8 14 19 43 26 66 6 22 23 54 37 70 14 16 28 40 31 54 6 23 144 173 152 165 2 -2 -4 -18 -14 -37z m-1318 -119 c57 -60 84 -101 142 -212 86 -166 137 -242 211 -320 63 -66 116 -103 66 -46 -34 38 -109 178 -119 222 -6 24 0 20 48 -30 61 -65 159 -188 201 -251 l28 -42 46 75 c52 85 209 285 222 285 23 0 -33 -136 -96 -236 l-37 -59 37 35 c75 72 171 204 261 360 44 77 43 75 49 68 3 -3 -1 -25 -9 -49 -9 -24 -16 -55 -16 -69 0 -14 -18 -56 -40 -94 -43 -74 -47 -85 -26 -67 7 6 22 8 31 4 11 -4 16 -2 12 4 -3 5 0 10 8 10 8 0 15 -4 15 -9 0 -13 -229 -249 -264 -273 -16 -11 -32 -27 -34 -35 -3 -9 6 -5 23 10 16 14 1 -11 -32 -55 -33 -44 -78 -115 -99 -157 -21 -43 -42 -78 -46 -78 -4 0 -9 9 -13 19 -9 28 -170 267 -224 331 -25 30 -96 110 -158 177 -112 121 -152 176 -70 95 42 -41 66 -55 51 -29 -4 6 1 5 12 -4 10 -9 24 -19 30 -22 8 -5 -50 119 -113 238 -5 11 -18 36 -27 55 -20 43 -91 127 -100 119 -3 -3 12 -30 34 -59 51 -69 51 -78 -1 -20 -62 69 -169 231 -169 255 0 12 92 -70 166 -146z m-1311 -158 c39 -5 90 -14 115 -22 l45 -13 -80 -7 c-92 -9 -240 -54 -267 -81 -10 -10 -18 -15 -18 -12 0 3 -13 -3 -29 -12 -17 -10 -28 -21 -25 -26 3 -4 -2 -5 -10 -2 -9 4 -18 -1 -22 -10 -3 -9 -9 -14 -13 -12 -3 2 -24 -14 -46 -36 -43 -43 -36 -42 32 4 74 50 205 107 283 124 102 22 393 25 470 4 52 -13 54 -14 25 -21 l-30 -7 33 -1 c40 -1 43 -21 3 -21 -37 0 -63 -9 -56 -20 3 -5 -36 -32 -87 -62 -102 -59 -196 -141 -266 -233 -26 -33 -71 -89 -100 -125 -30 -36 -64 -76 -75 -90 -49 -61 -157 -167 -157 -154 0 21 -16 17 -28 -8 -9 -20 -10 -17 -6 17 7 53 35 146 51 166 7 8 13 21 13 27 0 7 5 12 12 12 6 0 9 3 6 6 -4 3 5 22 19 42 20 30 22 38 9 40 -12 3 -13 9 -6 28 23 60 135 252 166 284 19 20 34 39 34 43 0 10 -47 -2 -100 -26 -25 -11 -48 -19 -52 -19 -4 1 -5 -4 -3 -11 3 -7 -5 -17 -17 -22 -13 -6 -23 -17 -24 -25 -1 -37 -15 -47 -60 -46 l-45 1 33 29 33 29 -35 -21 c-19 -11 -39 -30 -45 -41 -5 -12 -15 -21 -21 -21 -7 0 -23 -13 -37 -30 -14 -16 -44 -39 -66 -51 -42 -22 -50 -34 -28 -42 6 -3 0 -6 -15 -6 -18 -1 -28 -6 -28 -17 0 -8 -4 -12 -10 -9 -5 3 -7 0 -4 -8 3 -8 1 -18 -5 -22 -6 -3 -11 -11 -11 -16 0 -6 5 -7 10 -4 6 4 10 -7 10 -24 0 -30 -13 -41 -25 -21 -3 6 -1 10 5 10 6 0 8 5 5 10 -10 17 -25 11 -25 -10 0 -11 5 -20 10 -20 6 0 10 -7 10 -16 0 -9 6 -22 14 -28 8 -7 16 -38 19 -80 4 -62 3 -69 -14 -73 -11 -3 -19 -13 -18 -22 4 -39 -1 -49 -21 -44 -11 3 -20 10 -20 15 0 7 -22 9 -55 6 -52 -4 -70 2 -75 26 -1 5 4 12 11 16 7 5 9 15 4 26 -7 18 -8 18 -15 -2 -5 -12 -13 -25 -18 -28 -9 -5 -6 15 14 98 5 21 4 27 -5 22 -6 -4 -11 -15 -12 -24 0 -9 -3 -12 -5 -5 -7 17 41 134 99 237 52 95 136 226 143 226 3 0 2 -4 -1 -10 -3 -5 -4 -10 -1 -10 2 0 20 22 40 49 40 54 49 86 16 56 -11 -10 -20 -15 -20 -11 0 4 10 16 23 27 12 10 16 18 9 19 -32 0 -139 -72 -246 -167 -32 -29 -63 -51 -68 -50 -6 1 -12 -6 -13 -16 -2 -10 -11 -27 -19 -36 -9 -10 -13 -21 -9 -25 5 -4 3 -6 -4 -4 -6 1 -19 -6 -27 -17 l-16 -20 5 20 c3 11 -1 8 -8 -8 -7 -15 -15 -25 -18 -23 -3 3 -3 -10 -1 -29 3 -21 0 -35 -7 -35 -6 0 -11 7 -11 17 0 14 -2 14 -20 -2 -11 -10 -20 -14 -20 -9 -1 18 -51 -72 -65 -116 -8 -25 -21 -64 -29 -87 -23 -63 -31 -235 -16 -348 9 -66 16 -92 22 -83 7 9 8 4 3 -15 -4 -21 -3 -27 6 -21 8 5 10 2 6 -8 -3 -9 1 -26 10 -37 29 -42 5 -32 -37 16 -86 96 -127 245 -117 423 11 194 96 358 274 532 183 178 354 255 633 287 101 11 142 12 225 2z m4186 -24 c237 -62 455 -218 587 -419 63 -98 129 -278 141 -391 13 -123 -12 -258 -60 -317 -15 -18 -18 -19 -11 -5 5 11 8 97 8 190 -2 140 -6 184 -24 252 -22 82 -57 173 -70 183 -4 3 -27 39 -51 79 -73 123 -168 210 -272 246 -47 17 -68 12 -24 -5 45 -17 22 -22 -26 -5 -24 8 -51 18 -59 22 -8 3 -19 5 -24 4 -5 -1 -12 2 -15 6 -3 4 -22 16 -41 25 -35 17 -35 18 -5 12 21 -4 26 -2 15 4 -25 16 -63 25 -56 14 3 -6 -12 -1 -35 10 -22 10 -43 18 -45 16 -2 -2 20 -24 49 -48 89 -75 150 -144 205 -233 67 -107 125 -238 112 -251 -6 -6 -10 -18 -10 -28 0 -9 -6 -21 -13 -25 -7 -5 -12 -29 -12 -58 0 -60 -12 -65 -91 -40 -41 13 -54 22 -54 36 0 10 -7 19 -15 19 -9 0 -20 12 -25 26 -6 15 -21 34 -33 44 -33 26 -80 124 -72 149 3 12 2 21 -2 21 -5 0 -24 21 -42 47 -25 35 -35 43 -42 32 -7 -11 -9 -8 -9 9 0 13 -4 20 -10 17 -5 -3 -10 -1 -10 6 0 12 -17 32 -95 111 -22 22 -39 44 -38 48 2 8 -62 34 -112 45 -28 6 -27 4 26 -50 56 -57 147 -210 149 -250 0 -11 1 -31 1 -45 2 -53 9 -72 27 -68 20 5 25 -11 24 -72 0 -43 -6 -130 -9 -130 -5 0 -56 53 -123 130 -41 47 -110 123 -155 169 -44 46 -73 80 -65 77 24 -12 -98 103 -139 129 -20 13 -63 45 -96 71 l-60 47 47 -5 c55 -6 124 -47 211 -125 33 -29 64 -50 70 -46 6 3 7 1 3 -5 -8 -13 36 -62 54 -62 6 0 8 -4 5 -10 -3 -5 0 -10 8 -10 8 0 17 -9 20 -20 3 -11 14 -20 25 -20 12 0 24 -11 32 -30 7 -16 18 -30 25 -30 8 0 16 -6 18 -12 4 -10 8 -9 16 2 9 13 11 13 11 -2 0 -26 21 -33 27 -9 3 12 10 21 17 21 6 1 -7 17 -29 36 -22 20 -35 33 -29 30 23 -12 -27 70 -83 136 -95 113 -160 151 -304 179 -113 22 -161 24 -190 8 -22 -11 -86 -2 -72 11 4 4 55 18 113 30 92 19 122 21 235 15 72 -3 162 -12 200 -20 39 -7 90 -12 114 -10 30 2 55 -4 75 -16 17 -11 38 -19 46 -18 21 0 -72 47 -140 71 -33 11 -93 21 -149 23 -109 6 -134 18 -70 35 24 7 55 16 69 21 14 5 95 7 180 5 124 -3 174 -9 251 -29z m-2813 -2 c-3 -3 -9 2 -12 12 -6 14 -5 15 5 6 7 -7 10 -15 7 -18z m1042 -165 c-6 -11 -16 -20 -22 -20 -6 0 -3 9 7 20 10 11 20 20 22 20 2 0 -1 -9 -7 -20z m-1612 -50 c118 -13 282 -46 347 -72 77 -30 302 -156 375 -209 76 -57 151 -130 110 -109 -14 7 -27 16 -30 20 -4 6 -171 40 -196 40 -4 0 32 -24 80 -52 122 -73 237 -182 275 -261 16 -34 33 -73 36 -87 l7 -25 -18 25 c-25 36 -87 100 -97 100 -4 0 8 -28 27 -62 19 -35 40 -76 46 -93 l11 -30 -33 31 c-65 61 -69 48 -18 -51 68 -131 85 -193 71 -262 -6 -30 -23 -82 -38 -115 -37 -84 -158 -196 -268 -247 -126 -59 -161 -66 -347 -66 -91 0 -164 -3 -162 -7 4 -5 66 -30 114 -45 13 -4 13 -5 -1 -13 -10 -6 -40 -3 -80 6 -35 8 -75 14 -88 12 -21 -3 -16 -8 34 -34 143 -74 243 -84 414 -40 151 39 211 73 312 176 66 67 92 102 113 151 19 46 25 54 20 29 -8 -45 -26 -81 -80 -156 -100 -142 -237 -219 -489 -276 -91 -20 -418 -17 -518 5 -167 36 -319 120 -439 241 -144 145 -181 242 -181 481 0 138 2 157 27 235 38 115 55 146 128 232 35 40 65 75 68 78 3 3 16 18 30 34 l25 29 -28 -18 c-15 -10 -48 -41 -73 -69 l-46 -51 40 60 c38 58 91 104 160 139 19 10 30 22 26 28 -4 6 -1 9 7 6 8 -3 13 -11 11 -17 -1 -7 2 -10 8 -6 5 3 10 12 10 20 0 15 21 25 52 25 12 0 18 3 15 6 -10 11 -129 -17 -166 -38 -18 -10 -36 -17 -38 -14 -9 9 30 56 64 77 37 23 37 39 0 22 -31 -16 -189 -55 -195 -49 -2 3 3 17 12 30 9 14 16 32 16 40 0 8 10 18 21 21 17 6 18 9 8 16 -20 12 -6 20 63 35 76 16 222 9 243 -13 11 -11 31 -12 90 -7 77 7 87 11 46 17 -12 2 -26 8 -29 14 -19 29 -177 83 -244 83 -20 0 -39 4 -43 9 -16 27 210 39 383 21z m2535 -9 c8 -8 6 -11 -8 -11 -27 0 -227 -69 -240 -82 -7 -7 -4 -9 10 -5 11 3 36 8 55 11 l35 6 -32 -15 c-18 -8 -33 -19 -33 -24 0 -14 50 -19 88 -9 20 6 55 8 77 4 32 -4 42 -2 42 9 0 8 -6 15 -14 15 -7 0 -13 5 -13 11 0 7 9 9 23 5 12 -3 46 -10 75 -16 33 -8 52 -17 52 -26 0 -8 -6 -14 -14 -14 -33 0 -21 -19 45 -69 38 -30 67 -56 64 -59 -2 -3 -15 3 -26 14 -15 13 -23 15 -26 7 -3 -8 -22 -3 -59 17 -65 36 -85 38 -56 7 23 -24 29 -47 13 -47 -5 0 -45 7 -88 15 -43 8 -80 15 -82 15 -3 0 5 -11 18 -24 12 -12 39 -28 60 -34 45 -14 146 -79 180 -116 28 -30 21 -34 -17 -8 -15 10 -36 22 -47 26 -16 6 -14 0 10 -25 17 -19 35 -38 41 -44 73 -69 178 -273 194 -375 15 -99 12 -273 -6 -343 -67 -260 -347 -486 -664 -537 -93 -14 -309 -12 -420 4 -88 14 -263 66 -321 96 -69 36 -124 79 -150 118 l-29 43 47 -39 c67 -54 138 -96 203 -117 30 -10 60 -22 66 -26 6 -5 15 -5 19 -1 5 4 5 2 2 -4 -4 -7 4 -15 21 -19 42 -11 221 -15 245 -5 21 8 21 9 2 10 l-20 2 20 7 c45 16 153 70 159 80 9 14 0 14 -24 1 -22 -12 -181 -31 -194 -23 -5 3 -35 6 -67 7 -38 0 -60 5 -63 13 -3 7 -13 13 -23 12 -16 0 -16 -2 2 -10 14 -7 8 -8 -24 -4 -93 12 -264 97 -333 166 -57 55 -46 69 12 15 29 -28 86 -64 138 -89 48 -22 89 -44 92 -47 3 -3 14 -6 25 -7 11 -1 47 -7 80 -13 33 -5 87 -10 120 -10 62 0 225 28 225 39 0 3 -78 6 -173 7 -161 0 -178 2 -257 28 -179 59 -277 138 -345 281 -51 105 -57 193 -20 290 33 88 69 151 109 188 l31 29 -32 -16 c-18 -9 -33 -13 -33 -9 0 8 -65 -62 -87 -95 -9 -12 -18 -21 -20 -18 -6 5 91 188 125 236 19 28 14 24 -25 -15 -26 -27 -63 -68 -81 -90 -28 -35 -31 -36 -22 -12 43 120 136 224 298 332 93 61 98 70 36 60 -46 -7 -113 -36 -161 -71 -48 -35 -20 7 50 72 101 96 281 203 422 252 110 38 179 51 350 67 94 9 177 17 185 20 28 8 172 -3 183 -14z m-3183 -325 c0 -2 -7 -7 -16 -10 -8 -3 -12 -2 -9 4 6 10 25 14 25 6z m-40 -31 c0 -2 -10 -10 -22 -16 -21 -11 -22 -11 -9 4 13 16 31 23 31 12z m-530 -25 c0 -5 -5 -10 -11 -10 -5 0 -7 5 -4 10 3 6 8 10 11 10 2 0 4 -4 4 -10z m81 -113 c-13 -12 -20 -15 -16 -7 14 26 28 41 33 35 3 -3 -5 -16 -17 -28z m319 20 c0 -2 -10 -12 -22 -23 l-23 -19 19 23 c18 21 26 27 26 19z m-424 -96 c-9 -10 -16 -24 -16 -31 0 -7 -3 -11 -6 -8 -9 9 7 78 17 72 5 -3 10 3 10 13 1 12 3 10 6 -5 3 -13 -2 -31 -11 -41z m-319 27 c-3 -8 -6 -5 -6 6 -1 11 2 17 5 13 3 -3 4 -12 1 -19z m5000 0 c-3 -8 -6 -5 -6 6 -1 11 2 17 5 13 3 -3 4 -12 1 -19z m-177 -28 c0 -5 -2 -10 -4 -10 -3 0 -8 5 -11 10 -3 6 -1 10 4 10 6 0 11 -4 11 -10z m193 -75 c4 -34 3 -42 -3 -25 -8 25 -13 87 -6 79 2 -2 6 -26 9 -54z m-5423 -353 c8 -31 6 -35 -89 -132 -53 -55 -101 -100 -106 -100 -13 0 -65 52 -65 65 0 25 229 220 242 207 5 -5 12 -23 18 -40z m6298 -88 c75 -61 90 -79 81 -90 -6 -8 -16 -14 -21 -14 -6 0 -51 37 -101 82 -51 45 -84 79 -74 75 16 -6 16 -4 -2 19 -28 35 -27 47 2 24 12 -11 64 -54 115 -96z m-930 -11 c148 -74 200 -247 142 -478 -16 -66 -13 -92 13 -99 44 -11 97 -69 173 -189 165 -262 228 -324 389 -382 74 -27 79 -38 15 -32 -146 14 -268 118 -415 355 -114 185 -163 226 -199 170 -16 -26 -36 -123 -36 -178 0 -52 54 -217 89 -272 35 -54 135 -132 192 -149 21 -7 39 -16 39 -21 0 -14 -48 -9 -107 14 -111 41 -212 182 -222 310 l-6 67 -60 -45 c-63 -48 -167 -102 -248 -129 -45 -15 -49 -15 -73 4 -95 75 -173 295 -174 489 0 55 4 92 10 92 6 0 10 -22 10 -49 0 -69 54 -272 95 -357 41 -85 82 -124 130 -124 40 0 175 67 218 108 40 37 53 68 60 132 3 31 14 87 25 125 32 113 65 322 58 369 -25 159 -119 257 -251 260 -63 1 -77 -9 -141 -106 -25 -38 -49 -66 -54 -63 -5 3 -11 -3 -13 -12 -4 -14 -5 -13 -6 5 0 12 4 22 9 22 6 0 10 11 10 23 0 13 18 51 39 85 35 53 46 63 88 76 63 20 133 13 201 -21z m-4404 21 c33 -13 14 -22 -56 -26 -84 -6 -143 -25 -187 -59 -34 -27 -77 -106 -87 -161 -10 -61 24 -346 48 -397 11 -24 31 -80 43 -126 13 -45 28 -92 35 -104 27 -51 199 -151 258 -151 50 0 140 150 177 291 13 52 24 86 25 76 0 -26 20 -11 21 16 0 12 3 16 6 9 17 -42 -46 -250 -106 -352 l-41 -69 -83 2 c-102 3 -174 34 -247 109 -55 56 -56 55 -62 -33 -8 -111 -110 -268 -203 -310 -43 -20 -155 -26 -155 -9 0 6 16 10 35 10 85 0 197 89 246 195 16 33 38 98 50 146 18 74 20 92 10 140 -16 76 -50 133 -81 137 -35 4 -68 -33 -127 -144 -67 -123 -182 -276 -240 -319 -82 -60 -185 -90 -223 -65 -13 8 -12 10 4 10 34 0 168 71 214 114 47 42 157 201 214 307 40 76 113 159 139 159 17 0 19 5 15 33 -3 17 -10 86 -16 152 -10 102 -9 130 4 188 19 82 35 115 78 157 53 53 121 80 205 80 39 0 78 -3 87 -6z m-906 -41 c-1 -5 2 -19 6 -31 6 -19 1 -34 -24 -68 -17 -24 -28 -44 -24 -44 4 0 12 7 18 14 6 8 29 16 51 18 22 2 43 8 47 13 5 6 8 5 8 -3 0 -7 15 -25 33 -41 18 -16 38 -46 46 -66 7 -20 31 -56 53 -79 22 -22 44 -50 49 -61 8 -20 8 -20 9 0 1 14 5 10 15 -15 7 -19 14 -29 14 -22 2 30 21 -2 21 -36 1 -40 3 -39 44 23 12 18 13 12 11 -45 -6 -126 -42 -174 -100 -136 -13 9 -31 16 -39 16 -35 0 -295 287 -281 310 4 6 1 9 -6 8 -6 -2 -14 3 -17 11 -3 9 0 11 9 7 8 -4 5 0 -6 9 -11 9 -30 18 -42 22 -17 4 -23 13 -23 31 0 32 76 151 104 162 27 11 26 11 24 3z m976 -36 c42 -43 76 -115 76 -164 0 -38 -18 -26 -46 30 -14 28 -44 75 -65 104 -21 29 -39 57 -39 63 0 22 33 8 74 -33z m-118 -44 c77 -83 120 -226 111 -368 -7 -105 -18 -141 -63 -210 -70 -109 -125 -144 -163 -106 -12 12 -16 21 -8 21 8 0 9 2 1 8 -6 4 -15 26 -19 50 -6 38 -25 60 -25 30 0 -7 -12 7 -26 31 -23 41 -25 58 -31 207 -5 144 -4 166 11 189 10 15 15 32 13 40 -12 29 105 100 143 87 12 -4 11 -1 -2 15 -24 27 -23 33 7 33 15 0 37 -11 51 -27z m4344 13 c0 -2 -16 -27 -35 -56 -19 -29 -35 -57 -35 -64 0 -6 9 4 20 22 23 37 35 42 24 10 -6 -19 -4 -21 7 -11 18 15 75 -4 124 -41 41 -32 65 -100 65 -188 0 -58 -14 -138 -29 -168 -4 -8 -20 -55 -35 -105 -36 -115 -46 -135 -67 -135 -23 0 -101 80 -95 97 3 8 1 11 -4 8 -9 -6 -14 8 -11 28 1 5 -3 6 -8 2 -6 -3 -15 4 -21 15 -9 16 -8 25 2 38 11 15 11 16 -3 4 -15 -11 -19 -7 -33 35 -22 65 -30 184 -17 262 17 104 97 251 137 251 8 0 14 -2 14 -4z m818 -87 c68 -69 69 -75 12 -130 -21 -21 -42 -44 -46 -52 -15 -25 -67 -89 -114 -140 -49 -54 -132 -107 -167 -107 -34 0 -47 34 -26 67 10 16 21 31 26 34 4 3 3 18 -3 33 -25 67 8 149 74 182 28 14 87 77 137 147 11 15 26 27 34 27 7 0 40 -28 73 -61z m-2904 -86 c14 -29 22 -53 17 -53 -7 0 -26 37 -49 100 -10 29 6 5 32 -47z m-3545 -47 l32 -33 -20 -34 c-31 -53 -80 -189 -74 -205 3 -9 -2 -14 -15 -14 -18 0 -20 -10 -26 -132 -4 -73 -10 -153 -13 -178 l-7 -45 -8 45 c-4 25 -10 117 -14 205 -5 134 -4 171 10 224 18 67 81 201 94 201 5 0 23 -15 41 -34z m6970 -48 c52 -108 69 -200 77 -400 5 -131 4 -161 -6 -151 -8 7 -18 69 -26 154 -8 78 -18 146 -24 149 -6 4 -20 41 -30 82 -23 87 -45 142 -72 181 -19 27 -19 29 -3 48 10 10 24 19 31 19 8 0 31 -37 53 -82z m-3899 -48 c0 -5 -5 -10 -11 -10 -5 0 -7 5 -4 10 3 6 8 10 11 10 2 0 4 -4 4 -10z m3630 -62 c10 -24 21 -59 24 -78 5 -31 3 -28 -19 19 -14 29 -25 57 -25 62 0 5 -4 9 -10 9 -5 0 -10 7 -10 15 0 29 21 14 40 -27z m-6523 0 c-3 -8 -6 -5 -6 6 -1 11 2 17 5 13 3 -3 4 -12 1 -19z m-20 -30 c-3 -7 -5 -2 -5 12 0 14 2 19 5 13 2 -7 2 -19 0 -25z m2523 18 c0 -2 -7 -6 -15 -10 -8 -3 -15 -1 -15 4 0 6 7 10 15 10 8 0 15 -2 15 -4z m-2295 -41 c39 -15 77 -33 85 -40 8 -7 34 -19 58 -26 23 -7 42 -16 42 -21 0 -4 3 -7 8 -6 15 3 82 -15 88 -24 3 -5 -5 -6 -18 -3 -28 6 -38 0 -62 -45 -33 -63 -61 -100 -73 -100 -7 0 -13 -5 -13 -11 0 -5 5 -7 12 -3 7 4 1 -7 -12 -26 -20 -28 -25 -31 -35 -17 -6 9 -29 17 -51 19 -22 2 -38 8 -37 14 1 7 -9 15 -23 18 -18 5 -24 12 -20 22 3 9 2 12 -5 8 -6 -3 -21 4 -35 17 -16 15 -20 25 -13 30 6 4 8 12 4 18 -5 9 -11 9 -23 -1 -13 -11 -14 -11 -7 1 4 8 7 41 6 73 -2 44 1 58 12 58 16 0 35 37 31 63 -1 9 1 15 4 13 4 -2 39 -16 77 -31z m-299 -11 c-4 -9 -9 -15 -11 -12 -3 3 -3 13 1 22 4 9 9 15 11 12 3 -3 3 -13 -1 -22z m6446 -6 c30 -23 108 -150 100 -163 -19 -33 -212 -185 -212 -168 0 4 -5 1 -11 -7 -6 -8 -12 -11 -15 -5 -2 6 -30 48 -62 95 -40 59 -71 94 -104 115 -26 17 -48 32 -48 35 0 6 158 50 178 50 6 0 12 4 12 9 0 5 20 14 44 20 25 6 48 15 51 21 9 14 48 12 67 -2z m-3280 -58 c91 -26 143 -121 136 -246 -13 -211 -200 -333 -495 -322 -86 3 -117 8 -149 26 -99 51 -143 116 -144 210 0 93 44 154 130 179 30 8 132 46 225 83 94 37 177 70 185 73 25 9 73 7 112 -3z m463 -1 c22 -6 72 -25 110 -42 39 -16 135 -54 214 -83 151 -56 192 -82 217 -141 21 -49 17 -93 -16 -149 -34 -61 -76 -98 -145 -130 -93 -44 -300 -29 -430 30 -145 67 -221 207 -191 350 31 148 108 201 241 165z m-3112 -128 c-9 -12 -21 -21 -26 -21 -10 0 12 42 27 52 19 12 18 -9 -1 -31z m-634 -216 c-14 -57 -33 -103 -55 -134 -43 -60 -121 -191 -130 -216 -3 -11 8 3 26 30 49 76 80 105 112 105 16 0 28 -5 28 -13 0 -18 -156 -171 -168 -164 -5 4 -17 -13 -27 -36 -9 -23 -25 -61 -36 -85 -26 -59 -36 -174 -18 -204 8 -13 20 -36 27 -53 l12 -30 -20 25 c-11 14 -26 32 -35 41 -46 48 -61 180 -36 312 15 77 39 116 132 219 71 80 108 131 163 231 21 37 40 66 43 64 2 -3 -6 -44 -18 -92z m988 63 c-3 -8 -6 -5 -6 6 -1 11 2 17 5 13 3 -3 4 -12 1 -19z m-510 6 c-3 -3 -12 -4 -19 -1 -8 3 -5 6 6 6 11 1 17 -2 13 -5z m460 -45 l41 8 -14 -46 c-14 -48 -36 -71 -66 -71 -13 0 -18 8 -18 30 0 17 -4 30 -9 30 -5 0 -4 13 2 30 6 16 14 25 17 21 3 -5 24 -6 47 -2z m5773 -15 c0 -11 -5 -14 -16 -10 -9 3 -21 6 -27 7 -7 0 -3 4 8 9 29 13 35 12 35 -6z m-6477 -75 c21 -1 21 -2 2 -6 -11 -3 -23 -10 -27 -17 -4 -6 -7 7 -6 29 0 23 3 30 5 18 3 -15 12 -23 26 -24z m6327 -32 c54 -39 54 -39 20 -33 -35 6 -74 36 -92 70 -12 22 -9 20 72 -37z m-6062 4 c10 -6 5 -12 -18 -21 -35 -14 -49 -8 -30 15 14 17 29 19 48 6z m-221 -70 c24 -14 9 -14 -38 1 -22 6 -39 15 -39 19 0 9 50 -4 77 -20z m1157 -8 c16 -41 -103 -152 -234 -218 -77 -39 -210 -88 -210 -77 1 15 88 70 175 112 73 35 105 58 169 121 43 44 82 79 86 79 4 0 11 -7 14 -17z m4177 -60 c63 -60 84 -74 189 -128 47 -23 105 -55 130 -70 l45 -27 -39 6 c-63 9 -171 55 -252 107 -76 50 -174 134 -174 150 0 5 12 9 26 9 17 0 42 -16 75 -47z m1231 -17 c40 -19 125 -100 134 -128 3 -11 1 -25 -6 -32 -8 -8 -10 -7 -5 7 6 13 2 17 -17 17 -15 0 -32 11 -46 30 -13 17 -29 30 -36 30 -7 0 -19 7 -26 15 -16 20 -70 46 -70 34 0 -5 4 -9 9 -9 18 0 111 -93 111 -110 0 -36 -28 -50 -98 -51 -79 0 -191 -19 -284 -47 -37 -11 -91 -23 -120 -26 -32 -4 -55 -12 -61 -21 -4 -8 -55 -51 -111 -95 -57 -44 -111 -91 -120 -105 -20 -30 -16 -31 34 -5 40 21 48 18 30 -10 -8 -13 -10 -13 -10 0 0 21 -20 -1 -25 -30 -2 -12 -7 -25 -11 -29 -4 -3 -4 3 0 14 13 41 -28 -24 -54 -83 -13 -31 -34 -68 -47 -82 -25 -27 -83 -131 -83 -149 0 -8 11 -6 31 6 30 18 31 17 45 -2 15 -19 16 -19 47 18 36 40 64 46 107 22 14 -8 19 -14 12 -15 -7 0 -16 -10 -21 -23 -13 -34 -94 -147 -130 -181 -17 -17 -31 -35 -31 -41 0 -7 -26 -32 -57 -57 -32 -25 -70 -55 -85 -67 l-28 -22 20 46 c37 87 52 170 60 335 5 99 15 181 23 206 39 109 131 248 213 323 59 54 160 127 191 138 42 14 123 69 119 79 -4 9 26 27 166 95 10 5 23 7 30 4 7 -3 31 2 53 10 46 17 98 14 147 -9z m-6589 1 c-4 -6 7 -8 30 -4 41 6 79 -1 71 -14 -7 -11 50 -37 131 -58 39 -11 60 -22 60 -31 0 -15 58 -49 83 -50 28 0 190 -122 270 -202 87 -86 159 -191 194 -280 16 -41 23 -88 28 -213 7 -146 11 -169 44 -269 20 -60 36 -111 36 -113 0 -2 -21 20 -47 49 -26 29 -48 52 -50 50 -7 -5 -43 24 -43 35 0 7 -31 46 -69 85 -74 78 -121 143 -121 164 0 17 75 19 86 3 3 -6 15 -9 25 -6 11 3 17 1 14 -3 -3 -5 3 -8 12 -8 10 0 30 -3 46 -7 36 -9 36 11 1 85 -14 30 -36 84 -48 120 -26 76 -59 131 -112 186 -22 23 -48 54 -59 70 -30 43 -135 144 -151 144 -8 0 -14 4 -14 9 0 5 -13 14 -30 20 -16 5 -30 7 -30 4 0 -3 -6 0 -14 6 -12 10 -14 9 -12 -4 1 -9 9 -20 16 -25 8 -5 11 -12 7 -16 -4 -5 -51 6 -105 24 -116 38 -224 52 -390 52 l-124 0 7 28 c29 117 103 173 237 178 16 1 25 -3 21 -9z m3084 -35 c40 -29 73 -96 80 -167 l6 -55 -377 0 -376 0 0 33 c0 49 40 117 80 138 22 11 79 22 150 29 63 6 149 19 190 30 101 26 203 23 247 -8z m471 8 c46 -11 138 -25 203 -31 66 -5 130 -14 142 -18 49 -19 87 -86 87 -153 l0 -28 -364 0 -363 0 -6 28 c-16 83 38 187 113 215 31 11 108 6 188 -13z m-4114 -50 c-9 -16 -20 -30 -25 -30 -11 0 -4 16 19 43 21 24 23 21 6 -13z m1893 -90 c38 -52 94 -122 124 -156 113 -127 206 -240 219 -263 10 -19 13 -141 14 -538 0 -282 -2 -513 -5 -513 -4 0 -42 17 -84 37 -49 23 -98 38 -131 41 l-54 4 0 41 c0 33 -6 46 -37 75 -54 51 -135 86 -184 79 -36 -5 -40 -3 -61 33 -151 254 -151 256 -154 465 -2 153 -4 177 -27 241 -32 91 -39 103 -104 193 -40 55 -51 77 -42 87 6 7 54 34 107 60 108 52 274 158 311 198 14 14 28 23 31 19 4 -5 38 -51 77 -103z m3957 31 c79 -60 294 -181 322 -181 5 0 24 -9 41 -20 l33 -20 -43 -67 c-41 -64 -69 -126 -98 -218 -9 -26 -12 -90 -11 -185 2 -179 -8 -241 -63 -355 -56 -117 -117 -197 -210 -277 l-76 -65 -88 -12 c-98 -12 -129 -22 -242 -74 l-76 -35 -6 136 c-9 176 -8 922 1 943 4 9 25 32 47 50 70 58 291 314 332 383 21 36 40 66 42 66 3 0 45 -31 95 -69z m-5920 -48 c-15 -26 -58 -90 -96 -142 -78 -108 -93 -149 -85 -244 6 -72 22 -105 86 -187 l36 -45 -38 31 c-45 37 -114 125 -133 171 -28 65 -9 181 41 253 33 48 205 223 212 216 3 -3 -7 -27 -23 -53z m2784 -13 c113 -24 142 -35 142 -52 0 -10 -42 -12 -192 -10 -106 2 -207 1 -224 -3 -46 -8 -122 -62 -152 -107 l-25 -39 -14 32 c-12 30 -11 34 19 77 18 25 50 59 71 76 33 26 48 31 120 37 139 10 154 10 255 -11z m2515 -16 c31 -11 60 -31 87 -61 48 -55 60 -102 35 -140 l-18 -27 -24 47 c-26 52 -86 101 -142 117 -20 6 -134 13 -254 17 -231 6 -254 13 -161 45 69 24 408 26 477 2z m-3139 -10 c5 -14 4 -15 -9 -4 -17 14 -19 20 -6 20 5 0 12 -7 15 -16z m4984 -61 c-10 -2 -18 -8 -18 -13 0 -5 7 -7 16 -3 9 3 20 0 25 -8 7 -11 11 -11 17 -1 6 9 13 7 30 -8 34 -32 27 -46 -31 -59 -64 -14 -232 -82 -258 -105 -11 -9 -25 -16 -32 -16 -6 0 -21 -7 -32 -16 -25 -18 -304 -108 -313 -100 -3 3 2 6 12 6 9 0 15 4 11 9 -3 5 0 38 7 73 13 71 0 60 138 109 36 13 88 33 115 45 77 34 169 64 237 79 59 12 117 19 76 8z m-6443 -22 c22 -8 52 -20 67 -27 14 -8 39 -16 55 -18 39 -5 113 -30 113 -38 0 -3 14 -10 32 -13 18 -4 39 -11 48 -15 27 -15 82 -34 104 -36 43 -5 81 -17 88 -28 9 -13 11 -146 2 -146 -11 0 -249 81 -304 104 -90 37 -341 119 -400 131 -30 6 -56 16 -56 23 -1 7 -2 23 -3 37 -1 16 -7 25 -18 26 -10 1 -2 5 17 9 54 11 210 5 255 -9z m4517 -68 c18 -10 42 -33 54 -50 20 -30 21 -45 27 -610 7 -666 3 -742 -42 -831 -17 -34 -41 -67 -53 -74 -18 -10 -285 -14 -1325 -16 l-1301 -3 -37 38 c-21 21 -55 64 -76 95 l-39 57 1 498 c1 274 4 576 8 670 l6 173 33 32 32 33 243 5 c133 3 736 5 1339 4 1062 -2 1098 -2 1130 -21z m2721 -32 c59 -105 27 -229 -82 -320 -61 -51 -68 -41 -11 14 56 55 84 131 76 210 -4 33 -6 70 -6 83 0 13 -3 21 -8 19 -4 -3 -7 6 -7 19 0 35 7 30 38 -25z m-650 -103 c4 -10 8 -9 16 2 19 26 12 5 -13 -43 -35 -66 -59 -101 -73 -110 -7 -4 -13 -17 -13 -27 0 -10 -4 -22 -10 -25 -6 -4 -7 1 -4 12 5 15 4 16 -5 3 -6 -8 -11 -25 -11 -36 0 -20 -30 -57 -30 -38 0 5 -4 3 -9 -5 -7 -10 -39 -17 -103 -22 -51 -4 -109 -10 -129 -14 -51 -10 -141 -56 -156 -82 l-14 -21 68 18 c37 9 89 20 116 24 l47 7 -25 -25 c-14 -14 -30 -26 -34 -26 -4 0 -16 -9 -26 -20 -10 -11 -24 -20 -31 -20 -7 0 -16 -9 -19 -20 -3 -11 -11 -20 -16 -20 -6 0 -7 -5 -4 -11 5 -7 -5 -8 -32 -2 -46 10 -155 9 -238 -1 -46 -6 -56 -5 -42 4 9 6 22 8 27 5 6 -3 14 5 20 19 5 14 14 26 19 26 6 0 21 11 35 25 14 14 23 25 21 25 -2 0 14 17 36 38 21 21 45 55 54 75 8 20 20 37 25 37 6 0 10 9 10 20 0 11 5 20 11 20 5 0 8 4 4 9 -3 5 30 29 72 53 102 57 113 61 148 59 23 -1 26 1 15 9 -10 6 -11 10 -2 10 6 0 21 -9 32 -20 24 -24 42 -26 33 -4 -7 19 15 36 38 29 9 -3 24 4 35 16 18 20 18 20 -8 14 -14 -4 -28 -3 -31 3 -4 5 -1 9 6 10 7 1 39 8 72 16 77 18 112 19 118 4z m-7013 -65 c33 -52 41 -85 9 -38 -28 42 -51 85 -44 85 3 0 19 -21 35 -47z m6805 27 c3 -5 1 -10 -4 -10 -6 0 -11 5 -11 10 0 6 2 10 4 10 3 0 8 -4 11 -10z m415 -4 c0 -16 -102 -170 -131 -198 -37 -37 -26 1 28 87 58 95 81 125 95 125 4 0 8 -6 8 -14z m-6827 -10 c15 -5 27 -12 27 -17 0 -5 8 -9 19 -9 27 0 229 -85 252 -106 11 -10 43 -62 72 -117 50 -96 111 -171 152 -188 11 -5 -21 -6 -76 -2 -57 3 -116 1 -145 -5 -27 -6 -69 -13 -94 -14 l-45 -3 -3 58 -3 59 48 -4 c34 -2 47 1 45 10 -2 13 8 15 32 6 9 -3 13 -11 9 -17 -4 -6 -1 -7 6 -2 8 4 25 -4 44 -21 l30 -29 -19 35 c-22 40 -98 94 -152 110 -20 6 -80 16 -132 21 -152 17 -168 20 -145 29 11 5 14 9 8 9 -7 1 -20 15 -29 32 -9 19 -11 28 -4 24 7 -4 11 -4 9 1 -2 5 -11 26 -19 47 -8 20 -18 37 -22 37 -4 0 -8 9 -8 20 0 11 5 20 11 20 6 0 9 -7 6 -14 -4 -10 -1 -13 9 -9 7 3 14 13 14 23 0 28 39 34 103 16z m7017 -361 c-37 -186 -99 -295 -228 -399 -83 -66 -180 -115 -398 -201 -154 -61 -212 -88 -329 -155 -47 -27 -32 -10 49 55 60 47 123 80 315 161 264 112 400 210 482 348 25 42 19 61 -6 22 -16 -23 -151 -116 -169 -116 -4 0 39 46 96 103 84 83 111 118 146 185 23 46 43 91 43 100 1 9 4 4 6 -13 3 -16 -1 -56 -7 -90z m-7565 -55 c16 -23 78 -89 139 -147 107 -103 107 -110 1 -32 -61 44 -100 85 -131 136 -33 54 -30 24 5 -45 93 -184 220 -277 611 -444 138 -60 246 -120 300 -168 29 -25 12 -19 -90 34 -69 36 -179 85 -245 109 -313 115 -424 185 -546 346 -58 75 -84 141 -98 245 -15 107 -13 120 8 59 10 -29 30 -71 46 -93z m6285 130 c0 -5 -4 -10 -10 -10 -5 0 -10 5 -10 10 0 6 5 10 10 10 6 0 10 -4 10 -10z m-5642 -25 c-7 -8 -87 -9 -95 -2 -3 4 18 7 47 7 29 0 51 -2 48 -5z m125 -12 c-13 -2 -33 -2 -45 0 -13 2 -3 4 22 4 25 0 35 -2 23 -4z m452 -271 c134 -45 242 -105 293 -162 l43 -49 -25 -16 c-15 -10 -33 -14 -49 -10 -19 5 -28 2 -37 -14 -6 -12 -15 -19 -21 -16 -5 4 -9 2 -9 -4 0 -6 -28 -33 -62 -62 -35 -28 -77 -64 -94 -80 -38 -34 -32 -41 -114 111 -34 63 -71 125 -82 137 -12 12 -17 27 -13 34 5 7 4 10 -3 6 -5 -4 -36 24 -69 62 -32 37 -69 76 -83 85 -24 17 -20 17 105 13 111 -4 143 -9 220 -35z m5415 32 c3 -1 -38 -48 -91 -103 -78 -80 -105 -116 -140 -186 -30 -62 -64 -110 -118 -168 -42 -45 -91 -98 -108 -117 -18 -19 -33 -41 -33 -47 0 -7 -4 -13 -10 -13 -5 0 -32 -45 -60 -100 -28 -56 -55 -98 -60 -95 -6 4 -13 -8 -17 -25 -4 -22 -8 -28 -14 -18 -6 9 -9 5 -9 -12 0 -25 -32 -197 -52 -277 -6 -24 -14 -41 -18 -38 -4 3 -10 -9 -14 -26 -5 -27 -33 -59 -91 -108 -9 -7 -27 -11 -40 -8 -14 2 -22 0 -19 -4 3 -5 -1 -9 -9 -9 -7 0 -26 -13 -41 -29 -34 -35 -70 -44 -90 -22 -23 25 -56 103 -56 132 0 22 11 34 60 65 33 22 60 42 60 45 0 4 -32 4 -70 1 -63 -4 -70 -3 -64 12 4 9 46 36 95 60 49 23 86 45 83 49 -14 14 -83 7 -128 -13 -25 -10 -46 -16 -46 -12 0 14 74 81 101 91 21 8 35 4 77 -20 80 -45 92 -40 72 31 -8 29 -7 37 7 47 40 30 73 64 73 77 0 7 -19 21 -42 31 -24 10 -50 24 -58 31 -12 10 -30 10 -90 -2 -133 -26 -253 -56 -297 -75 -24 -10 -47 -19 -51 -20 -4 -1 -14 -16 -22 -34 -23 -50 -38 -63 -82 -70 -28 -5 -54 -20 -87 -51 l-46 -44 -92 0 c-50 0 -98 -3 -107 -6 -10 -4 -16 -1 -16 7 0 8 24 27 54 42 84 44 245 202 310 305 66 103 114 140 237 182 98 34 189 47 400 56 110 5 161 3 176 -5 24 -12 37 -2 27 22 -8 22 -79 45 -164 53 l-75 7 45 20 c53 24 184 35 228 19 48 -16 54 4 14 44 -28 28 -33 40 -30 68 5 40 -7 39 -67 -9 -107 -85 -119 -70 -31 38 51 64 83 93 114 107 24 11 56 28 70 38 35 24 166 74 217 83 37 7 223 9 235 3z m-4986 -316 c14 -20 22 -68 12 -68 -2 0 -11 -3 -19 -6 -18 -7 -62 60 -53 81 8 22 43 18 60 -7z m100 6 c9 -23 7 -72 -3 -78 -19 -12 -50 61 -36 83 9 16 32 13 39 -5z m-222 -31 c23 -27 28 -51 18 -78 -9 -24 -11 -25 -33 -10 -13 8 -29 27 -36 41 -10 22 -9 30 5 45 21 23 27 24 46 2z m313 -28 c0 -19 -6 -31 -16 -33 -20 -4 -30 18 -22 48 9 32 38 21 38 -15z m-407 -60 c28 -60 2 -99 -42 -64 -29 23 -33 50 -10 73 22 23 39 20 52 -9z m412 -80 c199 -24 278 -61 360 -170 25 -33 104 -119 175 -190 106 -106 143 -137 198 -163 69 -33 79 -48 50 -74 -30 -25 -49 -32 -25 -9 12 12 22 26 22 31 0 5 -24 17 -52 28 -29 11 -61 23 -70 27 -14 6 -18 2 -18 -14 0 -12 -7 -24 -15 -27 -30 -12 -144 7 -167 27 -19 16 -20 18 -4 12 17 -6 18 -3 11 23 -4 16 -8 50 -9 76 -1 42 -2 45 -17 32 -18 -16 -55 -19 -64 -4 -3 5 -15 15 -27 21 -14 7 -18 7 -14 0 4 -5 -5 -4 -20 4 -15 8 -54 22 -86 31 -36 11 -57 23 -54 30 3 8 -21 15 -72 23 -42 6 -102 15 -132 20 -54 8 -55 8 -87 -27 -36 -37 -41 -70 -20 -112 13 -25 20 -26 66 -16 16 4 29 0 37 -12 20 -25 18 -28 -26 -46 -22 -9 -40 -23 -40 -31 0 -8 -6 -15 -14 -15 -19 0 -66 -72 -65 -101 1 -20 2 -18 9 9 11 45 36 70 99 98 30 14 61 34 69 45 13 19 15 19 40 3 34 -21 82 -65 82 -75 0 -5 -21 -2 -47 6 -57 17 -96 19 -91 4 2 -5 33 -27 68 -48 78 -45 93 -75 32 -65 -22 3 -48 2 -58 -4 -16 -9 -15 -10 5 -22 47 -24 101 -82 101 -106 0 -31 -56 -143 -75 -150 -14 -6 -117 55 -130 76 -3 5 0 12 6 16 7 4 9 3 5 -4 -3 -6 -2 -13 4 -17 5 -3 10 2 10 11 0 16 2 15 23 -2 12 -10 0 6 -28 37 -27 31 -53 57 -57 58 -14 2 -8 -46 7 -59 27 -22 16 -32 -12 -10 -53 42 -72 81 -96 205 -15 73 -47 179 -81 270 -31 83 -59 166 -62 185 -6 33 -3 37 62 90 82 66 90 71 129 81 42 10 37 10 165 -6z m-496 -62 c7 -17 -43 -38 -63 -26 -24 15 -32 51 -15 68 14 13 18 12 44 -7 16 -11 31 -27 34 -35z m-69 -124 c0 -19 -4 -24 -24 -21 -33 3 -51 20 -51 47 0 33 10 37 44 17 21 -12 31 -26 31 -43z m-56 -90 c22 -8 30 -16 27 -26 -3 -8 -6 -21 -6 -29 0 -9 -11 -14 -30 -14 -28 0 -30 2 -30 40 0 22 2 40 4 40 1 0 17 -5 35 -11z m3694 -135 l47 -7 -43 -27 c-54 -34 -109 -53 -130 -44 -15 5 -17 -2 -17 -50 l0 -56 -74 0 -73 0 8 -42 c4 -24 8 -45 9 -48 0 -8 155 -4 168 4 6 4 28 -1 49 -11 l38 -18 -74 -3 -74 -3 7 -47 c3 -25 10 -50 15 -55 10 -10 319 -18 399 -10 56 6 66 21 36 54 -21 24 -12 35 34 42 20 4 53 18 72 32 19 14 37 22 41 18 18 -19 151 -244 244 -413 56 -102 111 -199 121 -217 10 -17 15 -35 10 -40 -4 -4 -888 -9 -1963 -11 l-1956 -2 6 37 c3 21 40 100 84 178 44 77 117 213 163 303 45 89 86 162 90 162 4 0 33 -11 64 -25 31 -14 65 -25 76 -25 28 0 32 -14 15 -53 -10 -24 -11 -38 -5 -42 6 -4 118 -3 250 1 l239 7 11 30 c5 16 10 41 10 53 0 23 -3 24 -82 24 -82 1 -83 1 -55 18 16 10 34 35 44 62 23 63 30 70 72 70 44 0 61 14 61 52 l0 28 -98 0 c-88 0 -104 3 -152 28 -30 15 -56 33 -58 40 -3 9 234 12 1161 12 640 0 1185 -3 1210 -6z m-3688 -55 c7 -20 -7 -38 -27 -39 -9 0 -28 34 -28 49 0 21 48 12 55 -10z m33 -96 c-2 -10 -10 -18 -18 -18 -8 0 -16 8 -18 18 -2 12 3 17 18 17 15 0 20 -5 18 -17z m350 -160 c18 -15 10 -28 -13 -19 -20 7 -29 32 -20 54 7 15 8 15 12 -3 3 -11 12 -26 21 -32z m4152 -127 c0 -2 -12 -12 -27 -21 l-28 -18 19 21 c17 20 36 29 36 18z m-3404 -587 c34 -8 57 -8 70 -1 30 15 401 26 454 12 62 -16 146 -30 203 -34 26 -2 51 -6 54 -10 6 -6 -169 -7 -886 -6 -351 1 -385 2 -397 18 -17 22 -17 33 -1 27 6 -3 57 -1 112 3 126 10 324 5 391 -9z m2999 1 c3 -5 19 -10 34 -10 16 0 44 -7 62 -15 31 -13 19 -14 -158 -15 -113 0 -193 4 -193 9 0 5 -10 12 -22 14 -13 2 5 5 40 6 34 0 62 6 62 11 0 6 35 10 84 10 47 0 88 -4 91 -10z m-1485 -17 c29 -5 31 -7 15 -14 -24 -9 -410 -11 -444 -2 -23 6 -24 7 -5 14 22 9 382 11 434 2z m1110 -9 c30 -11 -18 -13 -350 -13 -391 1 -554 9 -350 19 238 11 663 8 700 -6z m608 -11 c-15 -2 -42 -2 -60 0 -18 2 -6 4 27 4 33 0 48 -2 33 -4z"
       id="path1"
       style="fill:#ff6600" />
    <path
       d="M5000 9635 c-14 -8 -20 -14 -15 -14 6 0 21 6 35 14 14 8 21 14 15 14 -5 0 -21 -6 -35 -14z"
       id="path2" />
    <path
       d="M4860 9040 c0 -37 35 -60 93 -60 30 0 75 -6 100 -14 26 -8 47 -13 47 -12 0 12 -99 69 -148 85 -77 26 -92 26 -92 1z"
       id="path3"
       style="fill:#ff6600" />
    <path
       d="M5876 8968 c-10 -15 -16 -33 -14 -40 3 -8 11 -2 22 14 10 15 16 33 14 40 -3 8 -11 2 -22 -14z"
       id="path4"
       style="fill:#ff6600" />
    <path
       d="M6741 8724 c0 -11 3 -14 6 -6 3 7 2 16 -1 19 -3 4 -6 -2 -5 -13z"
       id="path5" />
    <path
       d="M5351 8554 c0 -11 3 -14 6 -6 3 7 2 16 -1 19 -3 4 -6 -2 -5 -13z"
       id="path6" />
    <path
       d="M5341 8504 c0 -11 3 -14 6 -6 3 7 2 16 -1 19 -3 4 -6 -2 -5 -13z"
       id="path7" />
    <path
       d="M5312 8345 c0 -16 2 -22 5 -12 2 9 2 23 0 30 -3 6 -5 -1 -5 -18z"
       id="path8" />
    <path
       d="M5106 8365 c-9 -26 -7 -32 5 -12 6 10 9 21 6 23 -2 3 -7 -2 -11 -11z"
       id="path9" />
    <path
       d="M4994 8141 c4 -6 12 -11 17 -11 6 0 26 -12 45 -26 23 -18 40 -24 51 -19 15 6 13 9 -10 16 -16 4 -34 15 -40 23 -15 18 -74 35 -63 17z"
       id="path10"
       style="fill:#ff6600" />
    <path
       d="M4927 8113 c-3 -5 33 -26 79 -48 46 -22 84 -40 84 -38 0 8 -50 53 -59 53 -7 0 -29 9 -51 20 -44 22 -47 23 -53 13z"
       id="path11"
       style="fill:#ff6600" />
    <path
       d="M5885 7818 c-86 -11 -89 -16 -13 -17 37 -1 70 4 73 10 10 15 6 16 -60 7z"
       id="path12"
       style="fill:#ff6600" />
    <path
       d="M5189 7335 c5 -11 17 -29 26 -40 l16 -20 -10 20 c-5 11 -17 29 -26 40 l-16 20 10 -20z"
       id="path13" />
    <path
       d="M3880 6983 c-27 -10 -104 -44 -129 -56 -34 -16 -141 -126 -141 -144 0 -8 -4 -11 -10 -8 -16 10 -12 -45 5 -62 8 -8 13 -19 10 -24 -4 -5 -2 -9 3 -9 6 0 18 13 29 29 48 75 163 179 251 226 30 17 56 35 56 40 1 11 -51 17 -74 8z"
       id="path14"
       style="fill:#ff6600" />
    <path
       d="M3408 6833 c7 -3 16 -2 19 1 4 3 -2 6 -13 5 -11 0 -14 -3 -6 -6z"
       id="path15" />
    <path
       d="M2735 6620 c-3 -6 1 -7 9 -4 18 7 21 14 7 14 -6 0 -13 -4 -16 -10z"
       id="path16" />
    <path
       d="M2923 6468 c-2 -18 0 -20 7 -8 12 18 13 30 2 30 -4 0 -9 -10 -9 -22z"
       id="path17" />
    <path
       d="M7725 6948 c16 -13 53 -48 83 -78 34 -35 49 -46 42 -30 -16 32 -86 98 -125 116 l-30 14 30 -22z"
       id="path18" />
    <path
       d="M7899 6700 c13 -11 27 -20 32 -20 18 0 8 10 -23 25 l-33 16 24 -21z"
       id="path19" />
    <path
       d="M4695 6779 c131 -48 161 -56 123 -35 -31 19 -200 76 -219 75 -8 0 36 -18 96 -40z"
       id="path20" />
    <path
       d="M4355 6551 c44 -10 116 -28 160 -40 44 -12 89 -25 100 -28 38 -10 1 14 -55 35 -85 33 -173 52 -231 51 l-54 -1 80 -17z"
       id="path21"
       style="fill:#ff6600" />
    <path
       d="M4130 6381 c-84 -34 -135 -62 -175 -97 -35 -31 -37 -35 -15 -29 14 3 35 7 47 9 12 1 35 13 50 28 16 14 53 42 83 63 79 53 79 54 10 26z"
       id="path22"
       style="fill:#ff6600" />
    <path
       d="M3806 5999 c-3 -17 -6 -59 -6 -94 0 -75 37 -157 105 -233 25 -27 43 -51 42 -53 -1 -2 0 -3 2 -2 2 2 23 -8 45 -21 58 -33 139 -58 178 -54 31 3 28 6 -60 52 -105 57 -201 144 -244 223 -18 32 -32 79 -39 129 -6 44 -12 80 -14 82 -1 1 -5 -12 -9 -29z"
       id="path23"
       style="fill:#ff6600" />
    <path
       d="M3771 5829 c-1 -79 16 -144 59 -229 31 -60 147 -179 232 -236 38 -26 71 -51 74 -55 3 -5 10 -9 16 -9 11 0 -66 94 -154 185 -114 119 -180 233 -214 370 l-12 50 -1 -76z"
       id="path24"
       style="fill:#ff6600" />
    <path
       d="M3910 5817 c0 -26 35 -79 81 -122 l53 -50 -46 55 c-25 30 -55 71 -67 90 -11 19 -21 31 -21 27z"
       id="path25" />
    <path
       d="M4240 5431 c-62 -17 -59 -104 5 -160 67 -59 149 -66 202 -18 35 32 35 34 24 70 -30 89 -130 136 -231 108z m125 -105 c20 -10 20 -11 -1 -14 -26 -4 -74 14 -74 28 0 12 43 4 75 -14z"
       id="path26"
       style="fill:#ff6600" />
    <path
       d="M6405 6801 c-67 -20 -168 -62 -162 -68 5 -4 100 20 142 37 17 7 57 20 90 30 53 16 56 18 25 19 -19 0 -62 -8 -95 -18z"
       id="path27" />
    <path
       d="M6638 6560 c-79 -14 -231 -69 -190 -70 7 0 72 15 145 34 72 19 143 36 157 39 14 2 5 4 -20 4 -25 1 -66 -3 -92 -7z"
       id="path28" />
    <path
       d="M6880 6386 c0 -2 20 -16 45 -31 25 -14 61 -40 79 -56 32 -28 34 -28 39 -8 4 15 2 19 -9 15 -8 -3 -13 0 -11 7 1 7 -27 26 -63 44 -63 31 -80 37 -80 29z"
       id="path29"
       style="fill:#ff6600" />
    <path
       d="M7221 5963 c-6 -53 -20 -115 -30 -137 -24 -55 -161 -184 -244 -230 -102 -57 -98 -71 11 -40 75 22 105 38 153 81 59 54 99 117 125 197 25 78 29 77 14 -4 -21 -109 -87 -212 -263 -406 -48 -53 -85 -99 -82 -102 10 -11 152 94 226 168 68 67 94 80 50 25 -16 -20 -16 -20 5 -2 52 43 113 223 101 300 -7 47 -47 240 -51 244 -1 2 -8 -40 -15 -94z"
       id="path30"
       style="fill:#ff6600" />
    <path
       d="M6725 5434 c-113 -28 -165 -69 -165 -133 0 -38 37 -80 72 -82 103 -7 167 22 203 91 24 46 22 81 -5 101 -27 20 -73 30 -105 23z m15 -103 c0 -10 -61 -34 -68 -26 -2 2 -2 11 1 20 7 16 67 22 67 6z"
       id="path31"
       style="fill:#ff6600" />
    <path
       d="M5395 4791 c-6 -5 -51 -27 -101 -49 -147 -66 -274 -84 -394 -57 -23 6 -23 5 5 -12 25 -15 52 -18 150 -18 112 1 125 3 202 33 52 21 99 48 125 73 23 21 38 39 32 39 -5 0 -14 -4 -19 -9z"
       id="path32" />
    <path
       d="M5606 4885 c20 -88 95 -169 190 -205 51 -20 77 -22 191 -22 154 1 199 12 256 63 l42 38 -65 -32 c-62 -31 -70 -32 -207 -35 -164 -4 -221 8 -299 61 -37 25 -57 50 -82 98 -20 39 -30 52 -26 34z"
       id="path33" />
    <path
       d="M2378 4583 c7 -3 16 -2 19 1 4 3 -2 6 -13 5 -11 0 -14 -3 -6 -6z"
       id="path34" />
    <path
       d="M3445 4328 c-55 -38 -121 -81 -148 -94 l-47 -25 29 -37 c40 -49 97 -182 110 -257 6 -33 10 -123 8 -201 l-2 -141 52 -104 c60 -120 106 -174 160 -184 75 -14 146 -67 175 -131 14 -30 126 -72 139 -53 15 23 0 859 -16 889 -7 14 -47 64 -89 110 -42 47 -117 133 -167 193 -51 59 -94 107 -98 106 -3 -1 -51 -32 -106 -71z"
       id="path35" />
    <path
       d="M7385 4205 c-97 -107 -180 -207 -184 -222 -5 -16 -9 -223 -9 -460 l0 -432 21 9 c12 5 75 24 140 41 107 29 124 37 178 82 82 69 131 137 181 247 l42 95 7 180 c8 210 33 319 98 425 l20 33 -48 23 c-68 31 -213 119 -244 148 l-27 25 -175 -194z"
       id="path36" />
    <path
       d="M5525 4204 c-9 -10 -14 -25 -12 -35 5 -18 -21 -19 -643 -21 -357 -2 -652 -7 -656 -11 -5 -4 -7 -319 -6 -699 1 -544 4 -693 14 -700 7 -4 612 -8 1344 -8 1259 0 1332 1 1339 18 4 9 9 319 11 688 3 567 2 673 -10 690 -14 18 -35 19 -670 22 l-656 3 0 22 c0 22 -17 47 -31 47 -4 0 -15 -7 -24 -16z m843 -132 c9 -6 -1 -18 -35 -39 -26 -17 -138 -109 -249 -204 -110 -96 -250 -217 -311 -269 -60 -52 -188 -165 -284 -251 -278 -248 -415 -369 -507 -446 l-86 -73 -308 0 -308 0 0 640 0 640 968 3 c532 1 999 3 1037 4 39 2 76 -1 83 -5z"
       id="path37" />
    <path
       d="M2921 3311 c-8 -5 -21 -7 -30 -4 -9 4 -6 -4 9 -18 20 -19 29 -22 43 -14 20 11 23 45 5 45 -7 0 -19 -4 -27 -9z"
       id="path38" />
    <path
       d="M6990 2580 c0 -14 48 -35 58 -26 8 9 -26 36 -45 36 -7 0 -13 -5 -13 -10z"
       id="path39" />
    <path
       d="M4130 2602 c0 -12 19 -26 26 -19 2 2 -2 10 -11 17 -9 8 -15 8 -15 2z"
       id="path40" />
    <path
       d="M6060 2443 l0 -43 85 0 c47 0 88 1 93 3 9 3 4 59 -6 68 -4 4 -44 9 -89 11 l-83 3 0 -42z"
       id="path41" />
    <path
       d="M6473 2483 c-13 -2 -23 -9 -23 -16 0 -8 -3 -8 -12 1 -7 7 -42 12 -85 12 l-73 0 0 -39 0 -38 58 -6 c81 -9 103 -1 97 32 l-5 26 12 -27 c11 -26 17 -28 65 -28 48 0 53 2 53 23 0 12 -4 27 -8 33 -7 11 -48 35 -54 33 -2 -1 -13 -4 -25 -6z"
       id="path42" />
    <path
       d="M4716 2458 c-15 -57 -13 -58 83 -58 l89 0 5 33 c2 17 3 35 0 40 -2 4 -42 7 -87 7 -78 0 -84 -1 -90 -22z"
       id="path43" />
    <path
       d="M4946 2464 c-3 -9 -6 -29 -6 -46 0 -27 3 -30 23 -24 12 3 52 6 90 6 l67 0 0 40 0 40 -84 0 c-67 0 -85 -3 -90 -16z"
       id="path44" />
    <path
       d="M5170 2440 l0 -40 90 0 90 0 0 40 0 40 -90 0 -90 0 0 -40z"
       id="path45" />
    <path
       d="M5390 2440 l0 -40 96 0 97 0 -7 31 c-3 17 -6 35 -6 40 0 5 -40 9 -90 9 l-90 0 0 -40z"
       id="path46" />
    <path
       d="M5612 2443 l3 -38 93 -3 c92 -3 92 -3 92 22 0 53 -6 56 -102 56 l-89 0 3 -37z"
       id="path47" />
    <path
       d="M5840 2441 l0 -38 83 -6 c45 -2 86 -1 91 3 5 5 5 25 2 44 l-7 36 -84 0 -85 0 0 -39z"
       id="path48" />
    <path
       d="M4589 2358 c-5 -9 -9 -32 -9 -51 l0 -35 83 5 c45 3 86 9 90 13 5 4 11 25 14 47 l5 40 -87 -1 c-71 -1 -89 -4 -96 -18z"
       id="path49" />
    <path
       d="M5140 2372 c-85 -3 -100 -14 -100 -70 0 -31 2 -34 23 -28 12 3 52 6 89 6 l66 0 7 41 c4 22 3 44 -1 47 -5 4 -43 6 -84 4z"
       id="path50" />
    <path
       d="M4814 2325 c-3 -25 -5 -47 -3 -49 2 -1 41 0 86 2 l83 4 10 37 c5 20 10 39 10 44 0 4 -40 7 -89 7 l-90 0 -7 -45z"
       id="path51" />
    <path
       d="M5280 2323 l0 -48 82 0 c88 0 96 5 97 68 l1 27 -90 0 -90 0 0 -47z"
       id="path52" />
    <path
       d="M5510 2325 l0 -45 55 -2 c131 -5 119 -9 125 45 l6 47 -93 0 -93 0 0 -45z"
       id="path53" />
    <path
       d="M5740 2327 l0 -44 88 -5 c48 -3 88 -4 90 -3 2 2 4 22 5 46 l2 44 -92 3 -93 3 0 -44z"
       id="path54" />
    <path
       d="M5970 2326 l0 -43 87 -6 c49 -3 91 -3 95 0 5 2 8 24 8 49 l0 44 -95 0 -95 0 0 -44z"
       id="path55" />
    <path
       d="M6214 2353 c2 -10 7 -32 11 -49 l6 -30 84 0 85 1 0 41 c0 51 -6 54 -111 54 -72 0 -80 -2 -75 -17z"
       id="path56" />
    <path
       d="M4673 2198 l-8 -53 89 -3 c49 -1 95 -1 103 2 8 4 13 23 13 56 l0 50 -94 0 -94 0 -9 -52z"
       id="path57" />
    <path
       d="M4925 2238 c-2 -7 -9 -32 -14 -55 l-9 -43 98 0 98 0 4 48 c3 26 3 50 1 55 -7 13 -173 8 -178 -5z"
       id="path58" />
    <path
       d="M5156 2241 c-4 -5 -9 -30 -12 -55 l-7 -46 102 0 101 0 0 55 0 55 -89 0 c-50 0 -92 -4 -95 -9z"
       id="path59" />
    <path
       d="M5387 2243 c-4 -3 -7 -28 -7 -55 l0 -48 100 0 100 0 0 55 0 55 -93 0 c-52 0 -97 -3 -100 -7z"
       id="path60" />
    <path
       d="M5620 2195 l0 -55 100 0 100 0 0 39 c0 70 -2 71 -106 71 l-94 0 0 -55z"
       id="path61" />
    <path
       d="M5858 2239 c-2 -7 -1 -30 2 -53 l5 -41 102 -3 103 -3 -6 33 c-14 85 -4 78 -108 78 -62 0 -96 -4 -98 -11z"
       id="path62" />
    <path
       d="M6100 2218 c0 -75 2 -76 107 -80 l95 -3 -5 48 c-4 26 -9 52 -12 57 -3 6 -46 10 -96 10 l-89 0 0 -32z"
       id="path63" />
    <path
       d="M6352 2241 c-9 -5 -12 -24 -10 -52 l3 -44 99 -3 98 -3 -6 27 c-4 14 -10 39 -13 55 -5 29 -6 29 -82 29 -42 0 -82 -4 -89 -9z"
       id="path64" />
    <path
       d="M4093 2098 c-12 -18 -53 -95 -53 -101 0 -12 77 -14 243 -8 l179 6 23 58 24 57 -203 0 c-151 0 -206 -3 -213 -12z"
       id="path65" />
    <path
       d="M4514 2050 l-10 -60 96 0 97 0 11 39 c25 81 24 81 -86 81 l-98 0 -10 -60z"
       id="path66" />
    <path
       d="M4758 2050 l-15 -60 794 0 c436 0 793 1 793 3 -1 1 -7 27 -14 57 l-13 55 -765 3 -765 2 -15 -60z"
       id="path67" />
    <path
       d="M6360 2101 c0 -6 5 -33 11 -61 l11 -50 84 0 c82 0 84 1 84 24 0 12 -10 38 -23 57 -22 33 -25 34 -95 37 -43 2 -72 -1 -72 -7z"
       id="path68" />
    <path
       d="M6745 2098 c-3 -7 1 -33 8 -58 l13 -45 77 -3 c88 -3 90 0 60 75 l-18 43 -68 0 c-45 0 -69 -4 -72 -12z"
       id="path69" />
    <path
       d="M7006 2099 c-28 -4 -53 -6 -58 -3 -11 7 -10 -9 3 -62 l11 -44 79 0 c44 0 79 3 79 8 0 8 -59 113 -63 111 -1 -1 -24 -5 -51 -10z"
       id="path70" />
    <path
       d="M6575 2043 c4 -21 9 -41 11 -45 3 -5 34 -8 70 -8 70 0 78 9 52 65 -10 23 -16 25 -76 25 l-64 0 7 -37z"
       id="path71" />
    <path
       d="M5037 1903 c-6 -11 -54 -161 -66 -205 l-9 -38 597 0 c329 0 600 3 603 6 3 3 -13 59 -35 125 l-41 119 -522 0 c-288 0 -525 -3 -527 -7z"
       id="path72" />
    <path
       d="M6728 1503 c6 -2 18 -2 25 0 6 3 1 5 -13 5 -14 0 -19 -2 -12 -5z"
       id="path73" />
    <path
       d="M3195 8040 c-155 -8 -240 -27 -329 -72 -157 -79 -254 -195 -328 -395 -21 -54 -22 -78 -26 -391 l-3 -332 108 109 c205 206 436 324 721 366 57 8 122 25 145 36 40 21 209 133 407 272 52 37 116 78 143 92 26 14 47 32 47 39 0 17 -59 146 -76 166 -7 8 -24 39 -39 68 l-26 52 -302 -2 c-166 0 -365 -4 -442 -8z"
       id="path74" />
    <path
       d="M7297 8041 l-189 -6 -22 -55 c-13 -30 -42 -93 -65 -139 -23 -46 -39 -87 -34 -91 4 -5 30 -20 57 -35 27 -15 91 -55 141 -89 51 -33 112 -73 136 -89 24 -15 79 -52 123 -82 94 -65 151 -88 305 -120 297 -63 471 -156 689 -369 71 -70 144 -152 174 -198 29 -43 56 -78 60 -78 5 0 8 177 8 393 0 442 -3 464 -72 606 -58 120 -170 232 -289 289 -46 22 -104 44 -129 50 -55 13 -633 21 -893 13z"
       id="path75" />
    <path
       d="M8650 2817 c-138 -58 -209 -102 -283 -175 -96 -95 -126 -141 -179 -273 -39 -97 -42 -113 -47 -229 -6 -106 -10 -134 -33 -181 -49 -107 -117 -163 -228 -189 -50 -12 -133 -49 -153 -69 -4 -4 0 -28 9 -54 14 -41 20 -47 51 -53 63 -12 373 3 437 21 215 60 378 233 436 462 19 72 20 107 18 414 l-3 336 -25 -10z"
       id="path76" />
    <path
       d="M2501 2652 c0 -86 4 -249 8 -362 7 -187 10 -210 33 -268 84 -205 217 -330 428 -402 63 -21 227 -39 377 -40 l61 0 21 60 20 61 -32 19 c-18 11 -61 29 -96 41 -97 31 -155 64 -194 110 -64 74 -75 115 -93 320 l-5 67 -48 25 c-26 15 -54 34 -63 44 -32 35 -78 149 -87 216 -5 38 -16 78 -24 90 -15 23 -174 118 -259 155 l-48 21 1 -157z"
       id="path77" />
    <path
       d="M6572 1089 c-37 -8 -82 -46 -114 -98 -19 -31 -20 -38 -9 -80 15 -56 63 -108 111 -120 19 -5 76 -14 125 -21 114 -15 115 -16 115 -39 0 -30 -32 -42 -128 -48 -84 -5 -90 -4 -146 26 -64 34 -76 31 -76 -21 0 -21 12 -35 58 -68 l57 -42 120 4 c110 4 124 6 172 33 28 16 57 40 62 53 18 38 13 106 -9 135 -24 30 -46 38 -204 72 -121 26 -156 43 -156 76 0 27 10 29 83 16 77 -13 161 0 267 41 88 34 94 42 28 42 -30 0 -68 5 -85 10 -47 17 -235 37 -271 29z"
       id="path78"
       style="fill:none" />
    <path
       d="M3207 1083 c-2 -5 -2 -118 1 -253 l4 -245 164 3 164 3 0 54 0 55 -110 0 -110 0 0 195 0 195 -54 0 c-30 0 -57 -3 -59 -7z"
       id="path79"
       style="fill:none" />
    <path
       d="M3765 1081 c-112 -28 -185 -125 -185 -247 0 -86 26 -142 87 -189 119 -91 247 -81 354 26 50 50 69 93 69 156 0 130 -72 220 -200 250 -60 14 -80 15 -125 4z m142 -132 c102 -63 79 -218 -38 -249 -59 -16 -123 15 -149 72 -25 55 -25 82 1 127 39 71 118 92 186 50z"
       id="path80"
       style="fill:none" />
    <path
       d="M4170 829 l0 -256 48 8 c26 4 53 8 60 8 8 1 12 24 12 79 l0 78 68 -10 c59 -8 73 -6 114 12 57 25 88 77 88 149 0 62 -25 108 -79 147 -41 30 -46 31 -177 36 l-134 5 0 -256z m251 115 c10 -9 19 -30 19 -46 0 -35 -28 -48 -106 -48 l-54 0 0 61 0 62 61 -6 c37 -3 68 -12 80 -23z"
       id="path81"
       style="fill:none" />
    <path
       d="M4760 1081 l-115 -6 -7 -50 c-3 -27 -7 -136 -7 -241 l-1 -191 143 -9 c216 -13 227 -11 227 54 0 28 -5 35 -35 48 -21 9 -68 14 -125 14 l-90 0 0 33 c0 55 8 60 94 52 87 -8 126 7 126 49 0 53 -5 56 -106 56 l-94 0 0 39 c0 48 7 51 110 51 89 0 102 9 104 68 l1 37 -55 1 c-30 0 -107 -2 -170 -5z"
       id="path82"
       style="fill:none" />
    <path
       d="M5112 1081 l-42 -6 4 -239 c3 -131 7 -240 9 -242 2 -2 32 -7 66 -10 l62 -7 -5 49 c-3 27 -8 87 -11 134 l-5 85 40 -75 c22 -41 54 -92 71 -113 l31 -37 38 42 c21 24 55 78 76 121 21 42 42 77 47 77 6 0 7 -23 3 -56 -3 -30 -3 -91 0 -135 l7 -79 58 0 59 0 0 245 0 245 -73 0 -73 0 -19 -42 c-20 -48 -116 -198 -125 -197 -3 0 -33 55 -67 122 -67 133 -64 131 -151 118z"
       id="path83"
       style="fill:none" />
    <path
       d="M6194 1061 c-80 -57 -102 -97 -95 -171 4 -47 65 -92 159 -121 41 -12 43 -14 40 -48 l-3 -36 -63 -3 c-50 -2 -74 2 -116 21 -63 29 -66 37 -66 224 0 67 -3 128 -6 137 -8 20 -72 22 -98 3 -15 -11 -17 -27 -14 -137 3 -102 24 -285 33 -298 2 -2 51 -14 111 -27 244 -56 332 -18 333 143 1 46 -3 58 -28 83 -18 17 -40 29 -56 29 -56 0 -112 52 -103 96 4 25 42 30 70 10 33 -23 53 -20 82 15 43 51 36 72 -32 92 -79 23 -103 22 -148 -12z"
       id="path84"
       style="fill:none" />
    <path
       d="M7066 1068 c-3 -13 -10 -85 -16 -161 -11 -155 -7 -176 49 -240 45 -50 91 -77 152 -86 68 -11 111 2 160 46 74 67 82 105 66 305 l-11 146 -29 6 c-71 14 -67 25 -67 -167 0 -167 -1 -174 -22 -195 -33 -30 -70 -36 -107 -18 -53 28 -59 47 -67 218 -6 148 -8 157 -28 162 -47 13 -75 7 -80 -16z"
       id="path85"
       style="fill:none" />
    <path
       d="M7590 1073 c0 -5 -1 -115 -3 -245 -1 -131 1 -239 5 -240 5 -2 28 -2 52 0 l43 4 7 77 c3 42 3 98 0 123 -8 57 8 69 26 20 27 -77 91 -162 121 -162 21 0 71 66 107 142 15 31 30 57 35 57 4 1 7 -50 7 -113 0 -63 3 -121 6 -130 5 -12 20 -16 58 -16 l51 0 2 228 c1 125 0 235 -3 245 -4 14 -17 17 -65 17 -50 0 -59 -3 -59 -18 0 -10 -14 -40 -32 -68 -17 -27 -46 -75 -64 -107 l-31 -59 -87 126 -87 126 -44 0 c-25 0 -45 -3 -45 -7z"
       id="path86"
       style="fill:none" />
  </g>
</svg>
