<svg width="133" height="133" viewBox="0 0 133 133" fill="none" xmlns="http://www.w3.org/2000/svg">
<g filter="url(#filter0_d_203_306)">
<g filter="url(#filter1_d_203_306)">
<path d="M103.203 2H29.8744C16.689 2 6 12.689 6 25.8744V99.2031C6 112.389 16.689 123.078 29.8744 123.078H103.203C116.389 123.078 127.078 112.389 127.078 99.2031V25.8744C127.078 12.689 116.389 2 103.203 2Z" fill="white" stroke="#48000A" stroke-width="3.41064"/>
<path d="M57.0417 55.6292V47.867C57.0417 45.0092 59.3587 42.6923 62.2165 42.6923C65.474 44.321 69.3085 44.321 72.566 42.6923C75.4238 42.6923 77.7407 45.0092 77.7407 47.867V55.6292C77.7407 57.0586 76.5828 58.2165 75.1534 58.2165H59.6291C58.1996 58.2167 57.0417 57.0588 57.0417 55.6292Z" fill="#EF2648"/>
<path d="M67.3913 38.8114C70.9637 38.8114 73.8598 35.9153 73.8598 32.3429C73.8598 28.7705 70.9637 25.8745 67.3913 25.8745C63.8189 25.8745 60.9229 28.7705 60.9229 32.3429C60.9229 35.9153 63.8189 38.8114 67.3913 38.8114Z" fill="#FFD4B0"/>
<path d="M37.6368 64.6851C36.9226 64.6851 36.343 64.1055 36.343 63.3913C36.3313 50.933 43.774 39.6779 55.2412 34.8098C55.8983 34.5304 56.6591 34.8358 56.9385 35.4929C57.218 36.15 56.9126 36.9108 56.2555 37.1902C45.7429 41.6521 38.92 51.9706 38.9304 63.3913C38.9304 64.1055 38.3508 64.6851 37.6368 64.6851Z" fill="#FFDC13"/>
<path d="M97.1462 64.6851C96.4321 64.6851 95.8525 64.1055 95.8525 63.3913C95.8629 51.9706 89.0399 41.6521 78.5274 37.1902C77.8702 36.9108 77.5648 36.1502 77.8443 35.4929C78.1238 34.8358 78.8844 34.5304 79.5417 34.8098C91.009 39.6779 98.4515 50.933 98.44 63.3913C98.44 64.1055 97.8604 64.6851 97.1462 64.6851Z" fill="#FFDC13"/>
<path d="M67.3916 94.4399C63.2168 94.4477 59.0835 93.6081 55.2412 91.9729C54.5841 91.6934 54.2787 90.9328 54.5582 90.2755C54.8376 89.6182 55.5982 89.313 56.2555 89.5924C63.3773 92.5912 71.4059 92.5912 78.5277 89.5924C79.1849 89.313 79.9456 89.6184 80.2251 90.2755C80.5045 90.9326 80.1991 91.6934 79.542 91.9729C75.6997 93.6081 71.5664 94.4477 67.3916 94.4399Z" fill="#FFDC13"/>
<path d="M58.3358 97.0273C57.8532 97.0286 57.4107 96.7608 57.1869 96.3327L54.5996 91.3818C54.2684 90.7491 54.5141 89.9665 55.1468 89.6366C55.2218 89.5978 55.302 89.5654 55.3835 89.5409L60.5582 88.0234C61.2439 87.8229 61.9632 88.2161 62.1637 88.9018C62.3641 89.5875 61.9709 90.3068 61.2852 90.5073L57.6228 91.5811L59.4818 95.1348C59.813 95.7687 59.5672 96.55 58.9346 96.8799C58.7498 96.9769 58.544 97.0273 58.3358 97.0273Z" fill="#FFDC13"/>
<path d="M97.1465 64.6851C96.8037 64.6851 96.4738 64.5492 96.2318 64.3061L92.3507 60.425C91.8539 59.9113 91.8681 59.0925 92.3831 58.5957C92.8851 58.1118 93.6794 58.1118 94.1801 58.5957L97.1466 61.5622L100.113 58.5957C100.627 58.0989 101.446 58.1131 101.942 58.6281C102.426 59.1301 102.426 59.9244 101.942 60.4251L98.0612 64.3062C97.8193 64.5492 97.4894 64.6851 97.1465 64.6851Z" fill="#FFDC13"/>
<path d="M53.1611 42.6924C52.9671 42.6924 52.7769 42.6484 52.6022 42.563C51.9593 42.2537 51.6875 41.4814 51.9968 40.8372L54.0136 36.6275L50.0381 34.8163C49.4003 34.4942 49.1442 33.7167 49.465 33.0789C49.7689 32.476 50.487 32.2083 51.1119 32.4645L56.2866 34.828C56.936 35.1268 57.2194 35.8954 56.9206 36.5447C56.9179 36.5498 56.9155 36.5551 56.9128 36.5603L54.3255 41.9589C54.1106 42.4065 53.6578 42.6911 53.1611 42.6924Z" fill="#FFDC13"/>
<path d="M71.2569 27.1837C73.407 30.0182 72.852 34.0584 70.0189 36.2085C67.7174 37.9549 64.5336 37.9549 62.2322 36.2085C64.3577 39.0675 68.3979 39.6627 71.2569 37.5384C74.116 35.4142 74.7111 31.3727 72.5869 28.5137C72.2104 28.0078 71.7627 27.5589 71.2569 27.1837Z" fill="#EDC4A2"/>
<path d="M94.559 81.503C98.1315 81.503 101.027 78.607 101.027 75.0346C101.027 71.4621 98.1315 68.5661 94.559 68.5661C90.9866 68.5661 88.0906 71.4621 88.0906 75.0346C88.0906 78.607 90.9866 81.503 94.559 81.503Z" fill="#FFD4B0"/>
<path d="M98.4246 69.8755C100.575 72.7099 100.02 76.7502 97.1866 78.9002C94.8852 80.6467 91.7013 80.6467 89.3999 78.9002C91.5255 81.7593 95.5656 82.3544 98.4246 80.2302C101.284 78.1059 101.879 74.0645 99.7546 71.2054C99.3781 70.6995 98.9305 70.2507 98.4246 69.8755Z" fill="#EDC4A2"/>
<path d="M40.2241 81.503C43.7965 81.503 46.6925 78.607 46.6925 75.0346C46.6925 71.4621 43.7965 68.5661 40.2241 68.5661C36.6516 68.5661 33.7556 71.4621 33.7556 75.0346C33.7556 78.607 36.6516 81.503 40.2241 81.503Z" fill="#FFD4B0"/>
<path d="M44.0897 69.8755C46.2397 72.7099 45.6847 76.7502 42.8516 78.9002C40.5502 80.6467 37.3664 80.6467 35.0649 78.9002C37.1905 81.7593 41.2306 82.3544 44.0897 80.2302C46.9487 78.1046 47.5439 74.0645 45.4196 71.2054C45.043 70.6995 44.5954 70.2507 44.0897 69.8755Z" fill="#EDC4A2"/>
<path d="M57.0417 55.6292C57.0417 57.0587 58.1996 58.2166 59.6291 58.2166H75.1534C76.5828 58.2166 77.7407 57.0587 77.7407 55.6292V47.867C77.7356 46.9666 77.4936 46.0844 77.0383 45.3081C72.4368 51.7832 64.9851 55.6292 57.0417 55.6292Z" fill="#B20D24"/>
<path d="M29.8745 98.3211V90.5589C29.8745 87.7012 32.1915 85.3842 35.0492 85.3842C38.3067 87.013 42.1412 87.013 45.3988 85.3842C48.2565 85.3842 50.5735 87.7012 50.5735 90.5589V98.3211C50.5735 99.7506 49.4156 100.908 47.9861 100.908H32.4619C31.0324 100.908 29.8745 99.7506 29.8745 98.3211Z" fill="#FFA511"/>
<path d="M29.8745 98.321C29.8745 99.7505 31.0324 100.908 32.4619 100.908H47.9861C49.4156 100.908 50.5735 99.7505 50.5735 98.321V90.5588C50.5684 89.6584 50.3264 88.7762 49.8711 87.9999C45.2694 94.4748 37.8177 98.321 29.8745 98.321Z" fill="#F08015"/>
<path d="M84.2095 98.3211V90.5589C84.2095 87.7012 86.5264 85.3842 89.3842 85.3842C92.6417 87.013 96.4762 87.013 99.7337 85.3842C102.591 85.3842 104.908 87.7012 104.908 90.5589V98.3211C104.908 99.7506 103.751 100.908 102.321 100.908H86.7968C85.3672 100.908 84.2095 99.7506 84.2095 98.3211Z" fill="#4DB5FF"/>
<path d="M84.2095 98.321C84.2095 99.7505 85.3674 100.908 86.7968 100.908H102.321C103.751 100.908 104.908 99.7505 104.908 98.321V90.5588C104.903 89.6584 104.661 88.7762 104.206 87.9999C99.6043 94.4748 92.1527 98.321 84.2095 98.321Z" fill="#3596D8"/>
</g>
</g>
<defs>
<filter id="filter0_d_203_306" x="0.294678" y="0.294678" width="132.488" height="132.488" filterUnits="userSpaceOnUse" color-interpolation-filters="sRGB">
<feFlood flood-opacity="0" result="BackgroundImageFix"/>
<feColorMatrix in="SourceAlpha" type="matrix" values="0 0 0 0 0 0 0 0 0 0 0 0 0 0 0 0 0 0 127 0" result="hardAlpha"/>
<feOffset dy="4"/>
<feGaussianBlur stdDeviation="2"/>
<feComposite in2="hardAlpha" operator="out"/>
<feColorMatrix type="matrix" values="0 0 0 0 0 0 0 0 0 0 0 0 0 0 0 0 0 0 0.25 0"/>
<feBlend mode="normal" in2="BackgroundImageFix" result="effect1_dropShadow_203_306"/>
<feBlend mode="normal" in="SourceGraphic" in2="effect1_dropShadow_203_306" result="shape"/>
</filter>
<filter id="filter1_d_203_306" x="0.294678" y="0.294678" width="132.488" height="132.488" filterUnits="userSpaceOnUse" color-interpolation-filters="sRGB">
<feFlood flood-opacity="0" result="BackgroundImageFix"/>
<feColorMatrix in="SourceAlpha" type="matrix" values="0 0 0 0 0 0 0 0 0 0 0 0 0 0 0 0 0 0 127 0" result="hardAlpha"/>
<feOffset dy="4"/>
<feGaussianBlur stdDeviation="2"/>
<feComposite in2="hardAlpha" operator="out"/>
<feColorMatrix type="matrix" values="0 0 0 0 0 0 0 0 0 0 0 0 0 0 0 0 0 0 0.25 0"/>
<feBlend mode="normal" in2="BackgroundImageFix" result="effect1_dropShadow_203_306"/>
<feBlend mode="normal" in="SourceGraphic" in2="effect1_dropShadow_203_306" result="shape"/>
</filter>
</defs>
</svg>
