<svg width="104" height="105" viewBox="0 0 104 105" fill="none" xmlns="http://www.w3.org/2000/svg">
<path d="M82.574 2.16327H21.4668C10.4789 2.16327 1.57144 11.0707 1.57144 22.0586V83.1659C1.57144 94.1538 10.4789 103.061 21.4668 103.061H82.574C93.5619 103.061 102.469 94.1538 102.469 83.1659V22.0586C102.469 11.0707 93.5619 2.16327 82.574 2.16327Z" fill="white" stroke="#03232E" stroke-width="2.8422"/>
<path d="M52.0204 24.9008L49.5204 43.3345L83.9951 40.8345V24.9008L52.0204 24.9008Z" fill="#B4D2D7"/>
<path d="M52.0204 24.9008H20.0457V40.8345L52.0204 43.3345V24.9008Z" fill="#E1EBF0"/>
<path d="M26.021 30.9942H30.0041V34.7412H26.021V30.9942Z" fill="#FF3939"/>
<path d="M33.9878 30.9942H37.9715V34.7412H33.9878V30.9942Z" fill="#FF9F22"/>
<path d="M41.9547 30.9942H45.9383V34.7412H41.9547V30.9942Z" fill="#15CCC2"/>
<path d="M52.0204 80.6687H83.9951V40.8345H52.0204L49.5204 60.7519L52.0204 80.6687Z" fill="#03232E"/>
<path d="M20.0457 40.8345H52.0204V80.6687H20.0457V40.8345Z" fill="#07485E"/>
<path d="M64.7418 54.8947H78.0199V58.6417H64.7418V54.8947Z" fill="#EFE2DD"/>
<path d="M64.7418 62.8615H78.0199V66.6086H64.7418V62.8615Z" fill="#EFE2DD"/>
<path d="M64.7418 70.8284H78.0199V74.5754H64.7418V70.8284Z" fill="#EFE2DD"/>
<path d="M78.0198 46.9278H52.0204L50.7704 48.8014L52.0204 50.6749H78.0198V46.9278Z" fill="#15CCC2"/>
<path d="M60.9918 74.5754V54.8947H52.0204L49.5204 64.735L52.0204 74.5754H60.9918Z" fill="#7ED8F6"/>
<path d="M26.021 46.9278H52.0204V50.6749H26.021V46.9278Z" fill="#6FE8D5"/>
<path d="M26.021 54.8947H52.0204V74.5759H26.021V54.8947Z" fill="#BEEBFA"/>
</svg>
