<svg width="125" height="125" viewBox="0 0 125 125" fill="none" xmlns="http://www.w3.org/2000/svg">
<path d="M99.2031 2H25.8744C12.689 2 2 12.689 2 25.8744V99.2031C2 112.389 12.689 123.078 25.8744 123.078H99.2031C112.389 123.078 123.078 112.389 123.078 99.2031V25.8744C123.078 12.689 112.389 2 99.2031 2Z" fill="white" stroke="#9A7939" stroke-width="3.41064"/>
<path d="M30.4576 28.166H80.871C83.402 28.166 85.454 30.218 85.454 32.749V94.62C85.454 97.151 83.402 99.2031 80.871 99.2031H30.4576C27.9266 99.2031 25.8745 97.151 25.8745 94.62V32.749C25.8745 30.218 27.9266 28.166 30.4576 28.166Z" fill="#ECCE93"/>
<path d="M30.4575 79.5283V32.749H80.871V94.6201H45.5493L30.4575 79.5283Z" fill="#EFEFEF"/>
<path d="M45.5493 79.5283V94.6201L30.4575 79.5283H45.5493Z" fill="#E76E54"/>
<path d="M44.2065 35.0405V25.8745H67.1217V35.0405C67.1217 37.5715 65.0697 39.6236 62.5387 39.6236H48.7896C46.2586 39.6236 44.2065 37.5715 44.2065 35.0405Z" fill="#E76E54"/>
<path d="M99.2032 78.5794C99.2032 89.9693 89.9694 99.2031 78.5795 99.2031C67.1896 99.2031 57.9558 89.9693 57.9558 78.5794C57.9558 67.1895 67.1896 57.9557 78.5795 57.9557C89.9694 57.9557 99.2032 67.1895 99.2032 78.5794Z" fill="#48C8EF"/>
<path d="M73.8545 87.4088L69.4136 82.9656C68.519 82.0705 68.519 80.6198 69.4136 79.7253C70.3082 78.8307 71.7588 78.8307 72.654 79.7253L74.1387 81.2078L84.5172 72.5575C85.4895 71.7463 86.9357 71.8778 87.7458 72.8507C88.557 73.823 88.4255 75.2692 87.4526 76.0793L73.8545 87.4088Z" fill="white"/>
<path d="M51.0811 44.2065H69.4132C70.6787 44.2065 71.7048 45.2326 71.7048 46.4981C71.7048 47.7635 70.6787 48.7896 69.4132 48.7896H51.0811C49.8156 48.7896 48.7896 47.7635 48.7896 46.4981C48.7896 45.2326 49.8156 44.2065 51.0811 44.2065Z" fill="#77959E"/>
<path d="M39.6235 44.2066H44.2066V48.7896H39.6235V44.2066Z" fill="#77959E"/>
<path d="M39.6235 53.3726H44.2066V57.9557H39.6235V53.3726Z" fill="#77959E"/>
<path d="M39.6235 62.5387H44.2066V67.1217H39.6235V62.5387Z" fill="#77959E"/>
<path d="M39.6235 71.7048H44.2066V76.2878H39.6235V71.7048Z" fill="#77959E"/>
<path d="M51.0811 53.3726H64.8302C66.0957 53.3726 67.1217 54.3987 67.1217 55.6641C67.1217 56.9296 66.0957 57.9557 64.8302 57.9557H51.0811C49.8156 57.9557 48.7896 56.9296 48.7896 55.6641C48.7896 54.3987 49.8156 53.3726 51.0811 53.3726Z" fill="#77959E"/>
<path d="M51.0811 62.5387H55.6641C56.9296 62.5387 57.9556 63.5647 57.9556 64.8302C57.9556 66.0957 56.9296 67.1217 55.6641 67.1217H51.0811C49.8156 67.1217 48.7896 66.0957 48.7896 64.8302C48.7896 63.5647 49.8156 62.5387 51.0811 62.5387Z" fill="#77959E"/>
</svg>
