<svg width="125" height="125" viewBox="0 0 125 125" fill="none" xmlns="http://www.w3.org/2000/svg">
<path d="M99.2031 2H25.8744C12.689 2 2 12.689 2 25.8744V99.2031C2 112.389 12.689 123.078 25.8744 123.078H99.2031C112.389 123.078 123.078 112.389 123.078 99.2031V25.8744C123.078 12.689 112.389 2 99.2031 2Z" fill="white" stroke="#5F3932" stroke-width="3.41064"/>
<path d="M92.0408 23.1552H66.2564C66.2564 24.7349 64.9737 26.0158 63.3915 26.0158C61.8093 26.0158 60.5266 24.7349 60.5266 23.1552H34.7422C30.793 23.1552 27.5798 26.3635 27.5798 30.3067V101.823C27.5798 105.766 30.793 108.974 34.7422 108.974H92.0408C95.99 108.974 99.2032 105.766 99.2032 101.823V30.3067C99.2032 26.3635 95.9898 23.1552 92.0408 23.1552ZM92.0408 100.392C92.0408 101.182 91.3994 101.823 90.6084 101.823H36.1746C35.3836 101.823 34.7422 101.182 34.7422 100.392V31.737C34.7422 30.9472 35.3836 30.3067 36.1746 30.3067H90.6084C91.3994 30.3067 92.0408 30.9472 92.0408 31.737V100.392Z" fill="#9F6459"/>
<path d="M44.4945 83.1638C44.1568 83.1638 43.8178 83.0451 43.5458 82.802C42.9555 82.2779 42.9025 81.3725 43.4272 80.7828L54.8574 67.905C55.2732 67.4355 55.9458 67.2929 56.5164 67.5528L70.8836 74.0937L80.3213 51.1396C80.6228 50.4102 81.457 50.0664 82.1867 50.3612C82.9165 50.6617 83.2639 51.4986 82.964 52.2294L72.9626 76.5543C72.8147 76.9134 72.5272 77.1971 72.1673 77.3396C71.8074 77.4822 71.4042 77.4723 71.0497 77.3117L56.2931 70.5947L45.562 82.683C45.28 83.0018 44.888 83.1638 44.4945 83.1638Z" fill="#D8DCE1"/>
<path d="M44.679 85.7449C46.9954 85.7449 48.8732 83.8672 48.8732 81.5508C48.8732 79.2344 46.9954 77.3566 44.679 77.3566C42.3627 77.3566 40.4849 79.2344 40.4849 81.5508C40.4849 83.8672 42.3627 85.7449 44.679 85.7449Z" fill="#FF4F19"/>
<path d="M56.2938 72.8397C58.6101 72.8397 60.4879 70.9619 60.4879 68.6456C60.4879 66.3292 58.6101 64.4514 56.2938 64.4514C53.9774 64.4514 52.0996 66.3292 52.0996 68.6456C52.0996 70.9619 53.9774 72.8397 56.2938 72.8397Z" fill="#FF9600"/>
<path d="M71.7799 79.9377C74.0962 79.9377 75.974 78.0599 75.974 75.7435C75.974 73.4272 74.0962 71.5494 71.7799 71.5494C69.4635 71.5494 67.5857 73.4272 67.5857 75.7435C67.5857 78.0599 69.4635 79.9377 71.7799 79.9377Z" fill="#FFD200"/>
<path d="M82.1036 56.0632C84.42 56.0632 86.2977 54.1855 86.2977 51.8691C86.2977 49.5527 84.42 47.6749 82.1036 47.6749C79.7872 47.6749 77.9094 49.5527 77.9094 51.8691C77.9094 54.1855 79.7872 56.0632 82.1036 56.0632Z" fill="#74D24F"/>
<path d="M72.0145 20.2515H68.3513C67.3381 18.4806 65.4546 17.3478 63.3915 17.3478C61.3285 17.3478 59.4449 18.4806 58.4317 20.2515H54.7686C50.8065 20.2515 47.5828 23.5081 47.5828 27.5106V33.3179C47.5828 34.1197 48.2255 34.7697 49.0199 34.7697H77.7631C78.5575 34.7697 79.2003 34.1197 79.2003 33.3179V27.5106C79.2003 23.5081 75.9765 20.2515 72.0145 20.2515ZM63.3915 24.607C62.5978 24.607 61.9544 23.9569 61.9544 23.1551C61.9544 22.3534 62.5978 21.7033 63.3915 21.7033C64.1852 21.7033 64.8287 22.3534 64.8287 23.1551C64.8287 23.9569 64.1852 24.607 63.3915 24.607Z" fill="#B9BBC1"/>
</svg>
