<svg width="105" height="105" viewBox="0 0 105 105" fill="none" xmlns="http://www.w3.org/2000/svg">
<path d="M83.0026 2H21.8954C10.9075 2 2 10.9075 2 21.8954V83.0026C2 93.9905 10.9075 102.898 21.8954 102.898H83.0026C93.9905 102.898 102.898 93.9905 102.898 83.0026V21.8954C102.898 10.9075 93.9905 2 83.0026 2Z" fill="white" stroke="#4D4D4D" stroke-width="2.8422"/>
<path d="M83.0026 2H21.8954C10.9075 2 2 10.9075 2 21.8954V83.0026C2 93.9905 10.9075 102.898 21.8954 102.898H83.0026C93.9905 102.898 102.898 93.9905 102.898 83.0026V21.8954C102.898 10.9075 93.9905 2 83.0026 2Z" stroke="#4D4D4D" stroke-width="2.8422"/>
<mask id="mask0_2703_565" style="mask-type:luminance" maskUnits="userSpaceOnUse" x="3" y="3" width="99" height="99">
<path d="M81.5815 3.42111H23.3165C12.3286 3.42111 3.42111 12.3286 3.42111 23.3165V81.5815C3.42111 92.5694 12.3286 101.477 23.3165 101.477H81.5815C92.5694 101.477 101.477 92.5694 101.477 81.5815V23.3165C101.477 12.3286 92.5694 3.42111 81.5815 3.42111Z" fill="white"/>
</mask>
<g mask="url(#mask0_2703_565)">
<path d="M-3.68439 3.42111H105.74V24.7376H-3.68439V3.42111Z" fill="#E7ECED"/>
<path d="M38.8988 11.9477C40.4364 11.9523 41.6791 13.2027 41.6741 14.7402C41.6695 16.2777 40.4186 17.5205 38.8811 17.5154C37.3436 17.5103 36.1013 16.2594 36.1064 14.7219C36.1119 13.1849 37.3618 11.9431 38.8988 11.9477Z" fill="#88DB51"/>
<path d="M28.9504 11.9477C30.4874 11.9528 31.7297 13.2032 31.7246 14.7402C31.72 16.2772 30.4696 17.519 28.9326 17.5144C27.3956 17.5093 26.1534 16.2589 26.1584 14.7219C26.1635 13.1849 27.4134 11.9426 28.9504 11.9477Z" fill="#EBD100"/>
<path d="M19.003 11.9477C20.54 11.9528 21.7817 13.2027 21.7767 14.7397C21.7716 16.2767 20.5217 17.519 18.9847 17.5139C17.4477 17.5088 16.2059 16.2589 16.211 14.7219C16.215 13.1849 17.4659 11.9426 19.003 11.9477Z" fill="#FA4C47"/>
<path d="M77.5752 59.3786H70.2012V83.5226H34.5936V59.3786H27.2196L52.3974 41.0483L69.6983 53.6446L77.5752 59.3786ZM57.1167 57.5727C57.1167 54.9668 55.0041 52.8534 52.3974 52.8534C49.7907 52.8534 47.678 54.9668 47.678 57.5727C47.678 60.1794 49.7907 62.2921 52.3974 62.2921C55.0041 62.2928 57.1175 60.1794 57.1167 57.5727Z" fill="#3083C9"/>
</g>
</svg>
